SplineFontDB: 3.0
FontName: Crisa-Regular
FullName: Crisa Regular
FamilyName: Crisa
Weight: Regular
Copyright: Copyright (c) 2011-2015 by tyPoland Lukasz Dziedzic (http://www.typoland.com/) with Reserved Font Name "Lato". Licensed under the SIL Open Font License, Version 1.1 (http://scripts.sil.org/OFL). \n\nModified into Crisa for Lojban/Zbalermorna in 2019 by Jack Humbert.
Version: 0.1; 2019-08-03; http://www.latofonts.com/
ItalicAngle: 0
UnderlinePosition: -510
UnderlineWidth: 89
Ascent: 1518
Descent: 506
InvalidEm: 0
sfntRevision: 0x0000199a
LayerCount: 2
Layer: 0 0 "Back" 1
Layer: 1 0 "Fore" 0
XUID: [1021 647 -312734098 17743]
StyleMap: 0x0040
FSType: 0
OS2Version: 3
OS2_WeightWidthSlopeOnly: 0
OS2_UseTypoMetrics: 0
CreationTime: 1438840825
ModificationTime: 1567444332
PfmFamily: 17
TTFWeight: 400
TTFWidth: 5
LineGap: 0
VLineGap: 0
Panose: 2 15 5 2 2 2 4 3 2 3
OS2TypoAscent: 1610
OS2TypoAOffset: 0
OS2TypoDescent: -390
OS2TypoDOffset: 0
OS2TypoLinegap: 400
OS2WinAscent: 1974
OS2WinAOffset: 0
OS2WinDescent: 426
OS2WinDOffset: 0
HheadAscent: 1974
HheadAOffset: 0
HheadDescent: -426
HheadDOffset: 0
OS2SubXSize: 1400
OS2SubYSize: 1300
OS2SubXOff: 0
OS2SubYOff: 280
OS2SupXSize: 1400
OS2SupYSize: 1300
OS2SupXOff: 0
OS2SupYOff: 954
OS2StrikeYSize: 89
OS2StrikeYPos: 550
OS2CapHeight: 1433
OS2XHeight: 1013
OS2Vendor: 'tyPL'
OS2CodePages: 2000019f.00000000
OS2UnicodeRanges: e10002ff.5200ecff.00000021.00000000
Lookup: 4 0 1 "zlmFF" { "zlmFF subtable"  } ['liga' ('latn' <'dflt' > 'DFLT' <'dflt' > ) ]
Lookup: 4 0 1 "zlmSFF" { "zlmSFF subtable"  } ['liga' ('latn' <'dflt' > 'DFLT' <'dflt' > ) ]
Lookup: 4 0 1 "zlmSF" { "zlmSF subtable"  } ['liga' ('latn' <'dflt' > 'DFLT' <'dflt' > ) ]
Lookup: 6 0 0 "zlmW" { "zlmW contextual 0"  "zlmW contextual 1"  "zlmW contextual 2"  "zlmW contextual 3"  } ['liga' ('latn' <'dflt' > 'DFLT' <'dflt' > ) ]
Lookup: 1 0 0 "Single Substitution lookup 4" { "Single Substitution lookup 4 subtable"  } []

StartChar: exclam
Encoding: 33 33 1
Width: 538
VWidth: 2000
Flags: W
HStem: -15 251<171.403 361.617>
VStem: 142 250<14.4032 205.617> 185 170<501.623 1433>
LayerCount: 2
Fore
SplineSet
355 1433 m 1xa0
 355 861 l 2
 355 831 354.333333333 801.666666667 353 773 c 0
 351.666666667 744.333333333 350 715.5 348 686.5 c 0
 346 657.5 343.5 627.833333333 340.5 597.5 c 0
 337.5 567.166666667 334 534.666666667 330 500 c 1
 210 500 l 1
 206 534.666666667 202.5 567.166666667 199.5 597.5 c 0
 196.5 627.833333333 194 657.5 192 686.5 c 0
 190 715.5 188.333333333 744.333333333 187 773 c 0
 185.666666667 801.666666667 185 831 185 861 c 2
 185 1433 l 1
 355 1433 l 1xa0
142 110 m 0xc0
 142 127.333333333 145.166666667 143.666666667 151.5 159 c 0
 157.833333333 174.333333333 166.666666667 187.666666667 178 199 c 0
 189.333333333 210.333333333 202.5 219.333333333 217.5 226 c 0
 232.5 232.666666667 249 236 267 236 c 0
 284.333333333 236 300.5 232.666666667 315.5 226 c 0
 330.5 219.333333333 343.666666667 210.333333333 355 199 c 0xa0
 366.333333333 187.666666667 375.333333333 174.333333333 382 159 c 0
 388.666666667 143.666666667 392 127.333333333 392 110 c 0xc0
 392 92 388.666666667 75.5 382 60.5 c 0
 375.333333333 45.5 366.333333333 32.3333333333 355 21 c 0xa0
 343.666666667 9.66666666667 330.5 0.833333333333 315.5 -5.5 c 0
 300.5 -11.8333333333 284.333333333 -15 267 -15 c 0
 249 -15 232.5 -11.8333333333 217.5 -5.5 c 0
 202.5 0.833333333333 189.333333333 9.66666666667 178 21 c 0
 166.666666667 32.3333333333 157.833333333 45.5 151.5 60.5 c 0
 145.166666667 75.5 142 92 142 110 c 0xc0
EndSplineSet
EndChar

StartChar: question
Encoding: 63 63 2
Width: 895
VWidth: 2000
Flags: W
HStem: -15 251<305.086 495.617> 1303 146<252.734 568.541>
VStem: 276 250<14.4032 205.617> 345 122<500 620.428> 640 167<975.663 1234.21>
LayerCount: 2
Fore
SplineSet
81 1305 m 1xd8
 101.666666667 1324.33333333 124.5 1342.66666667 149.5 1360 c 0
 174.5 1377.33333333 201.833333333 1392.66666667 231.5 1406 c 0
 261.166666667 1419.33333333 293.166666667 1429.83333333 327.5 1437.5 c 0
 361.833333333 1445.16666667 399 1449 439 1449 c 0
 491.666666667 1449 540.5 1441.33333333 585.5 1426 c 0
 630.5 1410.66666667 669.333333333 1389 702 1361 c 0
 734.666666667 1333 760.333333333 1299 779 1259 c 0
 797.666666667 1219 807 1174 807 1124 c 0
 807 1073.33333333 799.5 1029.66666667 784.5 993 c 0
 769.5 956.333333333 750.5 924.166666667 727.5 896.5 c 0
 704.5 868.833333333 679.5 844.833333333 652.5 824.5 c 0
 625.5 804.166666667 600 785 576 767 c 0
 552 749 531.5 731 514.5 713 c 0
 497.5 695 487.666666667 675 485 653 c 2
 467 500 l 1
 345 500 l 1
 333 666 l 2
 330.333333333 696 336 722.166666667 350 744.5 c 0
 364 766.833333333 382.333333333 787.833333333 405 807.5 c 0
 427.666666667 827.166666667 452.666666667 846.5 480 865.5 c 0
 507.333333333 884.5 532.833333333 905.666666667 556.5 929 c 0
 580.166666667 952.333333333 600 978.833333333 616 1008.5 c 0
 632 1038.16666667 640 1073.66666667 640 1115 c 0
 640 1143.66666667 634.333333333 1169.66666667 623 1193 c 0
 611.666666667 1216.33333333 596.333333333 1236.16666667 577 1252.5 c 0
 557.666666667 1268.83333333 534.833333333 1281.33333333 508.5 1290 c 0
 482.166666667 1298.66666667 454 1303 424 1303 c 0
 383.333333333 1303 348.5 1298 319.5 1288 c 0
 290.5 1278 266 1267 246 1255 c 0
 226 1243 209.833333333 1232 197.5 1222 c 0
 185.166666667 1212 175 1207 167 1207 c 0
 150.333333333 1207 137.333333333 1214.66666667 128 1230 c 2
 81 1305 l 1xd8
276 110 m 0xe8
 276 127.333333333 279.166666667 143.666666667 285.5 159 c 0
 291.833333333 174.333333333 300.5 187.666666667 311.5 199 c 0
 322.5 210.333333333 335.666666667 219.333333333 351 226 c 0
 366.333333333 232.666666667 382.666666667 236 400 236 c 256
 417.333333333 236 433.666666667 232.666666667 449 226 c 0
 464.333333333 219.333333333 477.666666667 210.333333333 489 199 c 0
 500.333333333 187.666666667 509.333333333 174.333333333 516 159 c 0
 522.666666667 143.666666667 526 127.333333333 526 110 c 0
 526 92 522.666666667 75.5 516 60.5 c 0
 509.333333333 45.5 500.333333333 32.3333333333 489 21 c 0
 477.666666667 9.66666666667 464.333333333 0.833333333333 449 -5.5 c 0
 433.666666667 -11.8333333333 417.333333333 -15 400 -15 c 256
 382.666666667 -15 366.333333333 -11.8333333333 351 -5.5 c 0
 335.666666667 0.833333333333 322.5 9.66666666667 311.5 21 c 0
 300.5 32.3333333333 291.833333333 45.5 285.5 60.5 c 0
 279.166666667 75.5 276 92 276 110 c 0xe8
EndSplineSet
EndChar

StartChar: semicolon
Encoding: 59 59 3
Width: 523
VWidth: 2000
Flags: W
HStem: 0 236<174.521 270.106> 735 251<165.086 355.617>
VStem: 150 233<35.5829 201.965 762.031 958.009>
LayerCount: 2
Fore
SplineSet
136 860 m 0
 136 877.333007812 139.166992188 893.666992188 145.5 909 c 0
 151.833007812 924.333007812 160.5 937.666992188 171.5 949 c 0
 182.5 960.333007812 195.666992188 969.333007812 211 976 c 0
 226.333007812 982.666992188 242.666992188 986 260 986 c 256
 277.333007812 986 293.666992188 982.666992188 309 976 c 0
 324.333007812 969.333007812 337.666992188 960.333007812 349 949 c 0
 360.333007812 937.666992188 369.333007812 924.333007812 376 909 c 0
 382.666992188 893.666992188 386 877.333007812 386 860 c 0
 386 842 382.666992188 825.5 376 810.5 c 0
 369.333007812 795.5 360.333007812 782.333007812 349 771 c 0
 337.666992188 759.666992188 324.333007812 750.833007812 309 744.5 c 0
 293.666992188 738.166992188 277.333007812 735 260 735 c 256
 242.666992188 735 226.333007812 738.166992188 211 744.5 c 0
 195.666992188 750.833007812 182.5 759.666992188 171.5 771 c 0
 160.5 782.333007812 151.833007812 795.5 145.5 810.5 c 0
 139.166992188 825.5 136 842 136 860 c 0
164 -242 m 2
 158.666992188 -237.333007812 155 -233 153 -229 c 0
 151 -225 150 -220 150 -214 c 0
 150 -209.333007812 151.5 -204.666992188 154.5 -200 c 0
 157.5 -195.333007812 161 -191 165 -187 c 0
 171.666992188 -179.666992188 180.166992188 -170 190.5 -158 c 0
 200.833007812 -146 211.333007812 -131.833007812 222 -115.5 c 0
 232.666992188 -99.1669921875 242.5 -81.1669921875 251.5 -61.5 c 0
 260.5 -41.8330078125 267 -21 271 1 c 1
 269 0.3330078125 266.833007812 0 264.5 0 c 0
 261 0 261 0 258 0 c 0
 223.333007812 0 195.166992188 11.5 173.5 34.5 c 0
 151.833007812 57.5 141 87 141 123 c 0
 141 154.333007812 151.833007812 181 173.5 203 c 0
 195.166992188 225 224 236 260 236 c 0
 280 236 297.666992188 232.333007812 313 225 c 0
 328.333007812 217.666992188 341.166992188 207.5 351.5 194.5 c 0
 361.833007812 181.5 369.666992188 166.5 375 149.5 c 0
 380.333007812 132.5 383 114 383 94 c 0
 383 64 378.833007812 32.8330078125 370.5 0.5 c 0
 362.166992188 -31.8330078125 349.833007812 -63.8330078125 333.5 -95.5 c 0
 317.166992188 -127.166992188 297.333007812 -158 274 -188 c 0
 250.666992188 -218 224 -245.666992188 194 -271 c 1
 164 -242 l 2
EndSplineSet
EndChar

StartChar: colon
Encoding: 58 58 4
Width: 500
VWidth: 2000
Flags: W
HStem: -15 251<154.086 344.617> 735 251<154.086 344.617>
VStem: 134.5 230.5<6.71046 213.399 756.71 963.399>
LayerCount: 2
Fore
SplineSet
125 860 m 0
 125 877.333007812 128.166992188 893.666992188 134.5 909 c 0
 140.833007812 924.333007812 149.5 937.666992188 160.5 949 c 0
 171.5 960.333007812 184.666992188 969.333007812 200 976 c 0
 215.333007812 982.666992188 231.666992188 986 249 986 c 256
 266.333007812 986 282.666992188 982.666992188 298 976 c 0
 313.333007812 969.333007812 326.666992188 960.333007812 338 949 c 0
 349.333007812 937.666992188 358.333007812 924.333007812 365 909 c 0
 371.666992188 893.666992188 375 877.333007812 375 860 c 0
 375 842 371.666992188 825.5 365 810.5 c 0
 358.333007812 795.5 349.333007812 782.333007812 338 771 c 0
 326.666992188 759.666992188 313.333007812 750.833007812 298 744.5 c 0
 282.666992188 738.166992188 266.333007812 735 249 735 c 256
 231.666992188 735 215.333007812 738.166992188 200 744.5 c 0
 184.666992188 750.833007812 171.5 759.666992188 160.5 771 c 0
 149.5 782.333007812 140.833007812 795.5 134.5 810.5 c 0
 128.166992188 825.5 125 842 125 860 c 0
125 110 m 0
 125 127.333007812 128.166992188 143.666992188 134.5 159 c 0
 140.833007812 174.333007812 149.5 187.666992188 160.5 199 c 0
 171.5 210.333007812 184.666992188 219.333007812 200 226 c 0
 215.333007812 232.666992188 231.666992188 236 249 236 c 256
 266.333007812 236 282.666992188 232.666992188 298 226 c 0
 313.333007812 219.333007812 326.666992188 210.333007812 338 199 c 0
 349.333007812 187.666992188 358.333007812 174.333007812 365 159 c 0
 371.666992188 143.666992188 375 127.333007812 375 110 c 0
 375 92 371.666992188 75.5 365 60.5 c 0
 358.333007812 45.5 349.333007812 32.3330078125 338 21 c 0
 326.666992188 9.6669921875 313.333007812 0.8330078125 298 -5.5 c 0
 282.666992188 -11.8330078125 266.333007812 -15 249 -15 c 256
 231.666992188 -15 215.333007812 -11.8330078125 200 -5.5 c 0
 184.666992188 0.8330078125 171.5 9.6669921875 160.5 21 c 0
 149.5 32.3330078125 140.833007812 45.5 134.5 60.5 c 0
 128.166992188 75.5 125 92 125 110 c 0
EndSplineSet
EndChar

StartChar: guillemotleft
Encoding: 171 171 5
Width: 858
VWidth: 2000
Flags: W
VStem: 100 630.5
LayerCount: 2
Fore
SplineSet
721 232 m 2
 730.333007812 216.666992188 733.5 202.166992188 730.5 188.5 c 0
 727.5 174.833007812 718.333007812 164.333007812 703 157 c 2
 645 129 l 1
 396 518 l 1
 396 541 l 1
 645 930 l 1
 703 902 l 2
 718.333007812 894.666992188 727.5 884.166992188 730.5 870.5 c 0
 733.5 856.833007812 730.333007812 842.333007812 721 827 c 2
 563 566 l 2
 553.666992188 549.333007812 544.333007812 537.333007812 535 530 c 1
 544.333007812 521.333007812 553.666992188 509 563 493 c 2
 721 232 l 2
425 232 m 2
 434.333007812 216.666992188 437.5 202.166992188 434.5 188.5 c 0
 431.5 174.833007812 422.333007812 164.333007812 407 157 c 2
 349 129 l 1
 100 518 l 1
 100 541 l 1
 349 930 l 1
 407 902 l 2
 422.333007812 894.666992188 431.5 884.166992188 434.5 870.5 c 0
 437.5 856.833007812 434.333007812 842.333007812 425 827 c 2
 267 566 l 2
 257.666992188 549.333007812 248.333007812 537.333007812 239 530 c 1
 248.333007812 521.333007812 257.666992188 509 267 493 c 2
 425 232 l 2
EndSplineSet
EndChar

StartChar: guillemotright
Encoding: 187 187 6
Width: 859
VWidth: 2000
Flags: W
VStem: 128.5 630.5
LayerCount: 2
Fore
SplineSet
759 541 m 1
 759 518 l 1
 510 129 l 1
 452 157 l 2
 436.666992188 164.333007812 427.5 174.833007812 424.5 188.5 c 0
 421.5 202.166992188 424.666992188 216.666992188 434 232 c 2
 592 493 l 2
 597.333007812 501 602.166992188 508.166992188 606.5 514.5 c 0
 610.833007812 520.833007812 615.666992188 526 621 530 c 1
 615.666992188 533.333007812 610.833007812 538.166992188 606.5 544.5 c 0
 602.166992188 550.833007812 597.333007812 558 592 566 c 2
 434 827 l 2
 424.666992188 842.333007812 421.5 856.833007812 424.5 870.5 c 0
 427.5 884.166992188 436.666992188 894.666992188 452 902 c 2
 510 930 l 1
 759 541 l 1
463 541 m 1
 463 518 l 1
 214 129 l 1
 156 157 l 2
 140.666992188 164.333007812 131.5 174.833007812 128.5 188.5 c 0
 125.5 202.166992188 128.666992188 216.666992188 138 232 c 2
 296 493 l 2
 301.333007812 501 306.166992188 508.166992188 310.5 514.5 c 0
 314.833007812 520.833007812 319.666992188 526 325 530 c 1
 319.666992188 533.333007812 314.833007812 538.166992188 310.5 544.5 c 0
 306.166992188 550.833007812 301.333007812 558 296 566 c 2
 138 827 l 2
 128.666992188 842.333007812 125.5 856.833007812 128.5 870.5 c 0
 131.5 884.166992188 140.666992188 894.666992188 156 902 c 2
 214 930 l 1
 463 541 l 1
EndSplineSet
EndChar

StartChar: parenleft
Encoding: 40 40 7
Width: 534
VWidth: 2000
Flags: W
VStem: 90 155<256.102 1001.77>
LayerCount: 2
Fore
SplineSet
245 629 m 256
 245 486.333333333 263.166666667 347.666666667 299.5 213 c 0
 335.833333333 78.3333333333 389 -49.6666666667 459 -171 c 0
 469.666666667 -191.666666667 472.333333333 -207.5 467 -218.5 c 0
 461.666666667 -229.5 454 -238.333333333 444 -245 c 2
 365 -293 l 1
 315 -216.333333333 272.5 -140.333333333 237.5 -65 c 0
 202.5 10.3333333333 174.166666667 86 152.5 162 c 0
 130.833333333 238 115 314.5 105 391.5 c 0
 95 468.5 90 547.666666667 90 629 c 0
 90 709.666666667 95 788.666666667 105 866 c 0
 115 943.333333333 130.833333333 1019.83333333 152.5 1095.5 c 0
 174.166666667 1171.16666667 202.5 1246.66666667 237.5 1322 c 0
 272.5 1397.33333333 315 1473.66666667 365 1551 c 1
 444 1502 l 2
 454 1495.33333333 461.666666667 1486.5 467 1475.5 c 0
 472.333333333 1464.5 469.666666667 1449 459 1429 c 0
 389 1307.66666667 335.833333333 1179.66666667 299.5 1045 c 0
 263.166666667 910.333333333 245 771.666666667 245 629 c 256
EndSplineSet
EndChar

StartChar: parenright
Encoding: 41 41 8
Width: 534
VWidth: 2000
Flags: W
VStem: 289 155<256.102 1001.77>
LayerCount: 2
Fore
SplineSet
289 629 m 256
 289 771.666666667 270.833333333 910.333333333 234.5 1045 c 0
 198.166666667 1179.66666667 145 1307.66666667 75 1429 c 0
 69.6666666667 1439 66.3333333333 1447.83333333 65 1455.5 c 0
 63.6666666667 1463.16666667 64 1469.83333333 66 1475.5 c 0
 68 1481.16666667 71.1666666667 1486.16666667 75.5 1490.5 c 0
 79.8333333333 1494.83333333 84.6666666667 1498.66666667 90 1502 c 2
 169 1551 l 1
 219 1473.66666667 261.5 1397.33333333 296.5 1322 c 0
 331.5 1246.66666667 359.833333333 1171.16666667 381.5 1095.5 c 0
 403.166666667 1019.83333333 419 943.333333333 429 866 c 0
 439 788.666666667 444 709.666666667 444 629 c 0
 444 547.666666667 439 468.5 429 391.5 c 0
 419 314.5 403.166666667 238 381.5 162 c 0
 359.833333333 86 331.5 10.3333333333 296.5 -65 c 0
 261.5 -140.333333333 219 -216.333333333 169 -293 c 1
 90 -245 l 2
 84.6666666667 -241.666666667 79.8333333333 -237.833333333 75.5 -233.5 c 0
 71.1666666667 -229.166666667 68 -224.166666667 66 -218.5 c 0
 64 -212.833333333 63.6666666667 -206 65 -198 c 0
 66.3333333333 -190 69.6666666667 -181 75 -171 c 0
 145 -49.6666666667 198.166666667 78.3333333333 234.5 213 c 0
 270.833333333 347.666666667 289 486.333333333 289 629 c 256
EndSplineSet
EndChar

StartChar: bracketleft
Encoding: 91 91 9
Width: 612
VWidth: 2000
Flags: W
HStem: -289 118<332 536.076> 1416 117<332 536.076>
VStem: 182 368<-289 -185.439 1429.92 1533> 182 150<-171 1416>
LayerCount: 2
Fore
SplineSet
332 1416 m 1xd0
 332 -171 l 1xd0
 501 -171 l 2
 515.666666667 -171 527.5 -175.666666667 536.5 -185 c 0
 545.5 -194.333333333 550 -205.666666667 550 -219 c 2
 550 -289 l 1
 182 -289 l 1
 182 1533 l 1
 550 1533 l 1
 550 1463 l 2xe0
 550 1449.66666667 545.5 1438.5 536.5 1429.5 c 0
 527.5 1420.5 515.666666667 1416 501 1416 c 2
 332 1416 l 1xd0
EndSplineSet
EndChar

StartChar: bracketright
Encoding: 93 93 10
Width: 612
VWidth: 2000
Flags: W
HStem: -289 118<75.924 280> 1416 117<75.924 280>
VStem: 62 368<-289 -185.439 1429.92 1533> 280 150<-171 1416>
LayerCount: 2
Fore
SplineSet
430 -289 m 1xe0
 62 -289 l 1
 62 -219 l 2xe0
 62 -205.666666667 66.5 -194.333333333 75.5 -185 c 0
 84.5 -175.666666667 96.3333333333 -171 111 -171 c 2
 280 -171 l 1
 280 1416 l 1xd0
 111 1416 l 2
 96.3333333333 1416 84.5 1420.5 75.5 1429.5 c 0
 66.5 1438.5 62 1449.66666667 62 1463 c 2
 62 1533 l 1
 430 1533 l 1
 430 -289 l 1xe0
EndSplineSet
EndChar

StartChar: braceleft
Encoding: 123 123 11
Width: 602
VWidth: 2000
Flags: W
HStem: -289 118<359.633 521.563> 569 107<68 167.899> 1416 117<361.217 521.563>
VStem: 154 156<-120.308 342.642 902.59 1363.91> 204 152<112.577 527.229 711.9 1132.83>
LayerCount: 2
Fore
SplineSet
476 1416 m 2xf0
 424 1416 383.333333333 1399.16666667 354 1365.5 c 0
 324.666666667 1331.83333333 310 1286.33333333 310 1229 c 0xf0
 310 1191.66666667 312.333333333 1155.66666667 317 1121 c 0
 321.666666667 1086.33333333 327 1052.5 333 1019.5 c 0
 339 986.5 344.333333333 953.666666667 349 921 c 0
 353.666666667 888.333333333 356 855.333333333 356 822 c 0
 356 797.333333333 352.333333333 774.166666667 345 752.5 c 0
 337.666666667 730.833333333 327.166666667 711.333333333 313.5 694 c 0
 299.833333333 676.666666667 283.833333333 661.833333333 265.5 649.5 c 0
 247.166666667 637.166666667 227 628 205 622 c 1
 227 616 247.166666667 607 265.5 595 c 0
 283.833333333 583 299.833333333 568.333333333 313.5 551 c 0
 327.166666667 533.666666667 337.666666667 514.166666667 345 492.5 c 0
 352.333333333 470.833333333 356 447.666666667 356 423 c 0xe8
 356 389.666666667 353.666666667 356.666666667 349 324 c 0
 344.333333333 291.333333333 339 258.5 333 225.5 c 0
 327 192.5 321.666666667 158.666666667 317 124 c 0
 312.333333333 89.3333333333 310 53.3333333333 310 16 c 0
 310 -42 324.666666667 -87.6666666667 354 -121 c 0
 383.333333333 -154.333333333 424 -171 476 -171 c 2
 496 -171 l 2
 504 -171 512.666666667 -174 522 -180 c 0
 531.333333333 -186 536 -195.666666667 536 -209 c 2
 536 -289 l 1
 482 -289 l 2
 428 -289 380.5 -281.166666667 339.5 -265.5 c 0
 298.5 -249.833333333 264.166666667 -228 236.5 -200 c 0
 208.833333333 -172 188.166666667 -138.666666667 174.5 -100 c 0
 160.833333333 -61.3333333333 154 -19 154 27 c 0xf0
 154 61.6666666667 156.666666667 95.5 162 128.5 c 0
 167.333333333 161.5 173 194.5 179 227.5 c 0
 185 260.5 190.666666667 293.333333333 196 326 c 0
 201.333333333 358.666666667 204 391.666666667 204 425 c 0
 204 467 192.333333333 501.5 169 528.5 c 0
 145.666666667 555.5 112 569 68 569 c 1
 68 676 l 1
 112 676 145.666666667 689.333333333 169 716 c 0
 192.333333333 742.666666667 204 777.333333333 204 820 c 0xe8
 204 853.333333333 201.333333333 886.333333333 196 919 c 0
 190.666666667 951.666666667 185 984.333333333 179 1017 c 0
 173 1049.66666667 167.333333333 1082.66666667 162 1116 c 0
 156.666666667 1149.33333333 154 1183.33333333 154 1218 c 0
 154 1264 160.833333333 1306.33333333 174.5 1345 c 0
 188.166666667 1383.66666667 208.833333333 1417 236.5 1445 c 0
 264.166666667 1473 298.5 1494.66666667 339.5 1510 c 0
 380.5 1525.33333333 428 1533 482 1533 c 2
 536 1533 l 1
 536 1454 l 2
 536 1440.66666667 531.333333333 1431 522 1425 c 0
 512.666666667 1419 504 1416 496 1416 c 2
 476 1416 l 2xf0
EndSplineSet
EndChar

StartChar: braceright
Encoding: 125 125 12
Width: 602
VWidth: 2000
Flags: W
HStem: -289 118<66 242.367> 569 107<434.101 534> 1416 117<66 240.783>
VStem: 246 152<112.577 527.229 717.256 1132.42> 292 156<-120.308 342.642 902.358 1364.19>
LayerCount: 2
Fore
SplineSet
534 569 m 1xf0
 490 569 456.333333333 555.5 433 528.5 c 0
 409.666666667 501.5 398 467 398 425 c 0xf0
 398 391.666666667 400.666666667 358.666666667 406 326 c 0
 411.333333333 293.333333333 417 260.5 423 227.5 c 0
 429 194.5 434.666666667 161.5 440 128.5 c 0
 445.333333333 95.5 448 61.6666666667 448 27 c 0
 448 -19 441.166666667 -61.3333333333 427.5 -100 c 0
 413.833333333 -138.666666667 393.166666667 -172 365.5 -200 c 0
 337.833333333 -228 303.5 -249.833333333 262.5 -265.5 c 0
 221.5 -281.166666667 174 -289 120 -289 c 2
 66 -289 l 1
 66 -209 l 2
 66 -195.666666667 70.8333333333 -186 80.5 -180 c 0
 90.1666666667 -174 98.6666666667 -171 106 -171 c 2
 126 -171 l 2
 178 -171 218.666666667 -154.333333333 248 -121 c 0
 277.333333333 -87.6666666667 292 -42 292 16 c 0xe8
 292 53.3333333333 289.666666667 89.3333333333 285 124 c 0
 280.333333333 158.666666667 275 192.5 269 225.5 c 0
 263 258.5 257.666666667 291.333333333 253 324 c 0
 248.333333333 356.666666667 246 389.666666667 246 423 c 0
 246 447.666666667 249.666666667 470.833333333 257 492.5 c 0
 264.333333333 514.166666667 274.833333333 533.666666667 288.5 551 c 0
 302.166666667 568.333333333 318.166666667 583 336.5 595 c 0
 354.833333333 607 375 616 397 622 c 1
 375 628 354.833333333 637.166666667 336.5 649.5 c 0
 318.166666667 661.833333333 302.166666667 676.666666667 288.5 694 c 0
 274.833333333 711.333333333 264.333333333 730.833333333 257 752.5 c 0
 249.666666667 774.166666667 246 797.333333333 246 822 c 0xf0
 246 855.333333333 248.333333333 888.333333333 253 921 c 0
 257.666666667 953.666666667 263 986.5 269 1019.5 c 0
 275 1052.5 280.333333333 1086.33333333 285 1121 c 0
 289.666666667 1155.66666667 292 1191.66666667 292 1229 c 0
 292 1286.33333333 277.333333333 1331.83333333 248 1365.5 c 0
 218.666666667 1399.16666667 178 1416 126 1416 c 2
 106 1416 l 2
 98.6666666667 1416 90.1666666667 1419 80.5 1425 c 0
 70.8333333333 1431 66 1440.66666667 66 1454 c 2
 66 1533 l 1
 120 1533 l 2
 174 1533 221.5 1525.33333333 262.5 1510 c 0
 303.5 1494.66666667 337.833333333 1473 365.5 1445 c 0
 393.166666667 1417 413.833333333 1383.66666667 427.5 1345 c 0
 441.166666667 1306.33333333 448 1264 448 1218 c 0xe8
 448 1183.33333333 445.333333333 1149.33333333 440 1116 c 0
 434.666666667 1082.66666667 429 1049.66666667 423 1017 c 0
 417 984.333333333 411.333333333 951.666666667 406 919 c 0
 400.666666667 886.333333333 398 853.333333333 398 820 c 0
 398 777.333333333 409.666666667 742.666666667 433 716 c 0
 456.333333333 689.333333333 490 676 534 676 c 1
 534 569 l 1xf0
EndSplineSet
EndChar

StartChar: quotedbl
Encoding: 34 34 13
Width: 741
VWidth: 2000
Flags: W
HStem: 921 512<162.956 247.074 495.956 580.074>
VStem: 127 155<1005.75 1433> 460 155<1005.75 1433>
LayerCount: 2
Fore
SplineSet
615 1433 m 1
 615 1143 l 1
 599 988 l 2
 595.666992188 966.666992188 589.5 950.166992188 580.5 938.5 c 0
 571.5 926.833007812 557 921 537 921 c 0
 519 921 505.166992188 926.833007812 495.5 938.5 c 0
 485.833007812 950.166992188 479.333007812 966.666992188 476 988 c 2
 460 1143 l 1
 460 1433 l 1
 615 1433 l 1
282 1433 m 1
 282 1143 l 1
 266 988 l 2
 262.666992188 966.666992188 256.5 950.166992188 247.5 938.5 c 0
 238.5 926.833007812 224 921 204 921 c 0
 186 921 172.166992188 926.833007812 162.5 938.5 c 0
 152.833007812 950.166992188 146.333007812 966.666992188 143 988 c 2
 127 1143 l 1
 127 1433 l 1
 282 1433 l 1
EndSplineSet
EndChar

StartChar: ampersand
Encoding: 38 38 14
Width: 1424
VWidth: 2000
Flags: W
HStem: -16 145<391.113 755.282> 0 21G<1224.33 1407> 1310 139<526.72 796.374>
VStem: 88 182<247.419 554.685> 282 167<949.063 1233.33> 869 160<1140.19 1237.49>
LayerCount: 2
Fore
SplineSet
483 706 m 1xbc
 412.333333333 668.666666667 359.166666667 623.333333333 323.5 570 c 0
 287.833333333 516.666666667 270 458.666666667 270 396 c 0
 270 352.666666667 278 314.5 294 281.5 c 0
 310 248.5 331 220.666666667 357 198 c 0
 383 175.333333333 412.666666667 158.166666667 446 146.5 c 0
 479.333333333 134.833333333 513.333333333 129 548 129 c 0
 622.666666667 129 689.833333333 142.666666667 749.5 170 c 0
 809.166666667 197.333333333 861.333333333 234 906 280 c 1
 483 706 l 1xbc
1407 0 m 1x7c
 1234 0 l 2x7c
 1214.66666667 0 1199 2.33333333333 1187 7 c 0
 1175 11.6666666667 1162 21.3333333333 1148 36 c 2
 1003 182 l 1
 940.333333333 121.333333333 868.166666667 73.1666666667 786.5 37.5 c 0
 704.833333333 1.83333333333 615 -16 517 -16 c 0xbc
 463.666666667 -16 411.5 -7 360.5 11 c 0
 309.5 29 263.666666667 55.1666666667 223 89.5 c 0
 182.333333333 123.833333333 149.666666667 165.666666667 125 215 c 0
 100.333333333 264.333333333 88 320 88 382 c 0
 88 428.666666667 95.8333333333 472.833333333 111.5 514.5 c 0
 127.166666667 556.166666667 149 594.666666667 177 630 c 0
 205 665.333333333 238 697 276 725 c 0
 314 753 355.666666667 777 401 797 c 1
 360.333333333 849 330.333333333 899.166666667 311 947.5 c 0
 291.666666667 995.833333333 282 1046 282 1098 c 0
 282 1146.66666667 290.833333333 1192.33333333 308.5 1235 c 0
 326.166666667 1277.66666667 351.666666667 1314.83333333 385 1346.5 c 0
 418.333333333 1378.16666667 458.833333333 1403.16666667 506.5 1421.5 c 0
 554.166666667 1439.83333333 607.666666667 1449 667 1449 c 0
 719.666666667 1449 767.666666667 1440.5 811 1423.5 c 0
 854.333333333 1406.5 891.666666667 1384 923 1356 c 0
 954.333333333 1328 979.166666667 1295.5 997.5 1258.5 c 0
 1015.83333333 1221.5 1026.33333333 1183 1029 1143 c 1
 918 1121 l 2
 896 1115.66666667 879.666666667 1126 869 1152 c 0
 864.333333333 1169.33333333 856.833333333 1187.33333333 846.5 1206 c 0
 836.166666667 1224.66666667 822.833333333 1241.66666667 806.5 1257 c 0
 790.166666667 1272.33333333 770.5 1285 747.5 1295 c 0
 724.5 1305 697.666666667 1310 667 1310 c 0
 633.666666667 1310 603.5 1304.66666667 576.5 1294 c 0
 549.5 1283.33333333 526.5 1268.5 507.5 1249.5 c 0
 488.5 1230.5 474 1208.16666667 464 1182.5 c 0
 454 1156.83333333 449 1129 449 1099 c 0
 449 1075.66666667 451.666666667 1053.33333333 457 1032 c 0
 462.333333333 1010.66666667 470.833333333 989 482.5 967 c 0
 494.166666667 945 509 922.666666667 527 900 c 0
 545 877.333333333 566.666666667 853.333333333 592 828 c 2
 1004 409 l 1
 1029.33333333 454.333333333 1049.66666667 501.5 1065 550.5 c 0
 1080.33333333 599.5 1090.33333333 648.333333333 1095 697 c 0
 1096.33333333 709.666666667 1100.33333333 719.666666667 1107 727 c 0
 1113.66666667 734.333333333 1123 738 1135 738 c 2
 1244 738 l 1
 1243.33333333 661.333333333 1231.33333333 586.166666667 1208 512.5 c 0
 1184.66666667 438.833333333 1151 369.666666667 1107 305 c 1
 1407 0 l 1x7c
EndSplineSet
EndChar

StartChar: dollar
Encoding: 36 36 15
Width: 1160
VWidth: 2000
Flags: W
HStem: -13 151<358.247 490 613 761.361> 1293 153<432.562 580 703 819.538>
VStem: 160 168<946.27 1198.1> 883 169<253.554 531.315>
LayerCount: 2
Fore
SplineSet
613 137 m 1
 657 141 695.666666667 150.5 729 165.5 c 0
 762.333333333 180.5 790.5 199.666666667 813.5 223 c 0
 836.5 246.333333333 853.833333333 273.5 865.5 304.5 c 0
 877.166666667 335.5 883 369.666666667 883 407 c 0
 883 440.333333333 876.833333333 469 864.5 493 c 0
 852.166666667 517 835.333333333 537.833333333 814 555.5 c 0
 792.666666667 573.166666667 767.666666667 588.166666667 739 600.5 c 0
 710.333333333 612.833333333 679.666666667 624.333333333 647 635 c 1
 613 137 l 1
580 1293 m 1
 536.666666667 1289 499.166666667 1280.33333333 467.5 1267 c 0
 435.833333333 1253.66666667 409.666666667 1237 389 1217 c 0
 368.333333333 1197 353 1174.5 343 1149.5 c 0
 333 1124.5 328 1098.33333333 328 1071 c 0
 328 1039 333.666666667 1011.16666667 345 987.5 c 0
 356.333333333 963.833333333 372 943 392 925 c 0
 412 907 435.333333333 891.333333333 462 878 c 0
 488.666666667 864.666666667 517.666666667 852.666666667 549 842 c 1
 580 1293 l 1
659 807 m 1
 707 791.666666667 754.333333333 775.333333333 801 758 c 0
 847.666666667 740.666666667 889.666666667 718.333333333 927 691 c 0
 964.333333333 663.666666667 994.5 629.5 1017.5 588.5 c 0
 1040.5 547.5 1052 496.333333333 1052 435 c 0
 1052 375 1042 318.666666667 1022 266 c 0
 1002 213.333333333 972.833333333 167 934.5 127 c 0
 896.166666667 87 849.166666667 54.5 793.5 29.5 c 0
 737.833333333 4.5 674.333333333 -10.3333333333 603 -15 c 1
 591 -190 l 2
 590.333333333 -202.666666667 585.333333333 -213.833333333 576 -223.5 c 0
 566.666666667 -233.166666667 555 -238 541 -238 c 2
 475 -238 l 1
 490 -13 l 1
 409.333333333 -5 335.833333333 15.1666666667 269.5 47.5 c 0
 203.166666667 79.8333333333 146 121 98 171 c 1
 152 253 l 2
 157.333333333 260.333333333 164 266.333333333 172 271 c 0
 180 275.666666667 188.666666667 278 198 278 c 0
 210.666666667 278 225 271.666666667 241 259 c 0
 257 246.333333333 276.833333333 232 300.5 216 c 0
 324.166666667 200 352.166666667 184.333333333 384.5 169 c 0
 416.833333333 153.666666667 455.666666667 143.333333333 501 138 c 1
 537 669 l 1
 490.333333333 683 444.5 698.666666667 399.5 716 c 0
 354.5 733.333333333 314.166666667 756.333333333 278.5 785 c 0
 242.833333333 813.666666667 214.166666667 849.333333333 192.5 892 c 0
 170.833333333 934.666666667 160 988.333333333 160 1053 c 0
 160 1101.66666667 169.5 1149.16666667 188.5 1195.5 c 0
 207.5 1241.83333333 235.333333333 1283 272 1319 c 0
 308.666666667 1355 353.666666667 1384.5 407 1407.5 c 0
 460.333333333 1430.5 521.333333333 1443.33333333 590 1446 c 1
 600 1590 l 2
 600.666666667 1602.66666667 605.5 1614 614.5 1624 c 0
 623.5 1634 635.333333333 1639 650 1639 c 2
 716 1639 l 1
 703 1442 l 1
 772.333333333 1433.33333333 832.5 1415.33333333 883.5 1388 c 0
 934.5 1360.66666667 979.666666667 1327.33333333 1019 1288 c 1
 976 1222 l 2
 962.666666667 1202 947.333333333 1192 930 1192 c 0
 920.666666667 1192 909.166666667 1196.16666667 895.5 1204.5 c 0
 881.833333333 1212.83333333 865.5 1222.66666667 846.5 1234 c 0
 827.5 1245.33333333 805.166666667 1256.33333333 779.5 1267 c 0
 753.833333333 1277.66666667 724.666666667 1285.66666667 692 1291 c 1
 659 807 l 1
EndSplineSet
EndChar

StartChar: numbersign
Encoding: 35 35 16
Width: 1160
VWidth: 2000
Flags: W
HStem: 0 21G<167 256.667 623.667 712.972> 423 131<67 252 418 646 812 1030> 880 131<141.083 336 502 730 896 1070.92>
VStem: 575 134<0.708984 71.346>
LayerCount: 2
Fore
SplineSet
730 880 m 1
 483 880 l 1
 418 554 l 1
 665 554 l 1
 730 880 l 1
1108 1011 m 1
 1095 936 l 2
 1091.66666667 916.666666667 1083.83333333 902.5 1071.5 893.5 c 0
 1059.16666667 884.5 1040.33333333 880 1015 880 c 2
 877 880 l 1
 812 554 l 1
 991 554 l 2
 1010.33333333 554 1024.16666667 548.5 1032.5 537.5 c 0
 1040.83333333 526.5 1043 507.333333333 1039 480 c 2
 1030 423 l 1
 793 423 l 1
 709 0 l 1
 628 0 l 2
 619.333333333 0 611.333333333 2 604 6 c 0
 596.666666667 10 590.5 15.3333333333 585.5 22 c 0
 580.5 28.6666666667 577 36.6666666667 575 46 c 0
 573 55.3333333333 573 65.6666666667 575 77 c 2
 646 423 l 1
 399 423 l 1
 328 68 l 2
 324 43.3333333333 314.333333333 25.8333333333 299 15.5 c 0
 283.666666667 5.16666666667 266.333333333 0 247 0 c 2
 167 0 l 1
 252 423 l 1
 106 423 l 2
 87.3333333333 423 73.8333333333 428.5 65.5 439.5 c 0
 57.1666666667 450.5 55 469.666666667 59 497 c 2
 67 554 l 1
 271 554 l 1
 336 880 l 1
 104 880 l 1
 117 954 l 2
 120.333333333 973.333333333 128.166666667 987.666666667 140.5 997 c 0
 152.833333333 1006.33333333 171.666666667 1011 197 1011 c 2
 355 1011 l 1
 427 1369 l 2
 431 1389 440.166666667 1404.66666667 454.5 1416 c 0
 468.833333333 1427.33333333 486 1433 506 1433 c 2
 586 1433 l 1
 502 1011 l 1
 749 1011 l 1
 833 1433 l 1
 912 1433 l 2
 931.333333333 1433 946.5 1426.66666667 957.5 1414 c 0
 968.5 1401.33333333 972.333333333 1385.33333333 969 1366 c 2
 896 1011 l 1
 1108 1011 l 1
EndSplineSet
EndChar

StartChar: less
Encoding: 60 60 17
Width: 1160
VWidth: 2000
Flags: W
LayerCount: 2
Fore
SplineSet
450 704 m 2
 436.666666667 697.333333333 422.5 691.333333333 407.5 686 c 0
 392.5 680.666666667 376.333333333 676.333333333 359 673 c 1
 376.333333333 669 392.5 664.5 407.5 659.5 c 0
 422.5 654.5 436.666666667 648.333333333 450 641 c 2
 899 414 l 2
 912.333333333 407.333333333 921.666666667 399.666666667 927 391 c 0
 932.333333333 382.333333333 935 372.666666667 935 362 c 2
 935 234 l 1
 162 636 l 1
 162 710 l 1
 935 1111 l 1
 935 984 l 2
 935 972.666666667 932.333333333 962.833333333 927 954.5 c 0
 921.666666667 946.166666667 912.333333333 938.666666667 899 932 c 2
 450 704 l 2
EndSplineSet
EndChar

StartChar: greater
Encoding: 62 62 18
Width: 1160
VWidth: 2000
Flags: W
LayerCount: 2
Fore
SplineSet
998 710 m 1
 998 636 l 1
 225 234 l 1
 225 362 l 2
 225 372.666666667 227.666666667 382.333333333 233 391 c 0
 238.333333333 399.666666667 247.666666667 407.333333333 261 414 c 2
 710 641 l 2
 723.333333333 648.333333333 737.5 654.5 752.5 659.5 c 0
 767.5 664.5 783.333333333 669 800 673 c 1
 766 680.333333333 736 690.666666667 710 704 c 2
 261 932 l 2
 247.666666667 938.666666667 238.333333333 946.166666667 233 954.5 c 0
 227.666666667 962.833333333 225 972.666666667 225 984 c 2
 225 1111 l 1
 998 710 l 1
EndSplineSet
EndChar

StartChar: percent
Encoding: 37 37 19
Width: 1603
VWidth: 2000
Flags: W
HStem: -17 118<1080.02 1315.36> 0 21G<182 319.667> 581 118<1080.82 1313.75> 731 118<287.802 522.363> 1330 117<289.517 521.036>
VStem: 88 139<912.55 1264.13> 584 138<913.53 1263.14> 881 139<163.406 516.777> 1377 138<165.351 514.791>
LayerCount: 2
Fore
SplineSet
722 1087 m 0x3f80
 722 1031 713.333333333 980.833333333 696 936.5 c 0
 678.666666667 892.166666667 655.5 854.833333333 626.5 824.5 c 0
 597.5 794.166666667 563.833333333 771 525.5 755 c 0
 487.166666667 739 446.666666667 731 404 731 c 0
 359.333333333 731 317.666666667 739 279 755 c 0
 240.333333333 771 206.833333333 794.166666667 178.5 824.5 c 0
 150.166666667 854.833333333 128 892.166666667 112 936.5 c 0
 96 980.833333333 88 1031 88 1087 c 0
 88 1144.33333333 96 1195.33333333 112 1240 c 0
 128 1284.66666667 150.166666667 1322.33333333 178.5 1353 c 0
 206.833333333 1383.66666667 240.333333333 1407 279 1423 c 0
 317.666666667 1439 359.333333333 1447 404 1447 c 0
 449.333333333 1447 491.333333333 1439 530 1423 c 0
 568.666666667 1407 602.333333333 1383.66666667 631 1353 c 0
 659.666666667 1322.33333333 682 1284.66666667 698 1240 c 0
 714 1195.33333333 722 1144.33333333 722 1087 c 0x3f80
584 1087 m 0
 584 1131 579.333333333 1168.33333333 570 1199 c 0
 560.666666667 1229.66666667 547.833333333 1254.83333333 531.5 1274.5 c 0
 515.166666667 1294.16666667 496 1308.33333333 474 1317 c 0
 452 1325.66666667 428.666666667 1330 404 1330 c 256
 379.333333333 1330 356.333333333 1325.66666667 335 1317 c 0
 313.666666667 1308.33333333 295 1294.16666667 279 1274.5 c 0
 263 1254.83333333 250.333333333 1229.66666667 241 1199 c 0
 231.666666667 1168.33333333 227 1131 227 1087 c 0
 227 1043.66666667 231.666666667 1006.83333333 241 976.5 c 0
 250.333333333 946.166666667 263 921.5 279 902.5 c 0
 295 883.5 313.666666667 869.833333333 335 861.5 c 0
 356.333333333 853.166666667 379.333333333 849 404 849 c 256
 428.666666667 849 452 853.166666667 474 861.5 c 0
 496 869.833333333 515.166666667 883.5 531.5 902.5 c 0
 547.833333333 921.5 560.666666667 946.166666667 570 976.5 c 0
 579.333333333 1006.83333333 584 1043.66666667 584 1087 c 0
1229 1403 m 2
 1235.66666667 1411 1243.5 1418 1252.5 1424 c 0
 1261.5 1430 1273.66666667 1433 1289 1433 c 2
 1418 1433 l 1
 370 29 l 2
 364 20.3333333333 356.333333333 13.3333333333 347 8 c 0
 337.666666667 2.66666666667 326.333333333 0 313 0 c 2
 182 0 l 1x7f80
 1229 1403 l 2
1515 338 m 0
 1515 282 1506.33333333 232 1489 188 c 0
 1471.66666667 144 1448.5 106.833333333 1419.5 76.5 c 0
 1390.5 46.1666666667 1356.83333333 23 1318.5 7 c 0
 1280.16666667 -9 1239.66666667 -17 1197 -17 c 0xbf80
 1151.66666667 -17 1109.83333333 -9 1071.5 7 c 0
 1033.16666667 23 999.833333333 46.1666666667 971.5 76.5 c 0
 943.166666667 106.833333333 921 144 905 188 c 0
 889 232 881 282 881 338 c 0
 881 395.333333333 889 446.5 905 491.5 c 0
 921 536.5 943.166666667 574.333333333 971.5 605 c 0
 999.833333333 635.666666667 1033.16666667 659 1071.5 675 c 0
 1109.83333333 691 1151.66666667 699 1197 699 c 0
 1241.66666667 699 1283.5 691 1322.5 675 c 0
 1361.5 659 1395.16666667 635.666666667 1423.5 605 c 0
 1451.83333333 574.333333333 1474.16666667 536.5 1490.5 491.5 c 0
 1506.83333333 446.5 1515 395.333333333 1515 338 c 0
1377 338 m 0
 1377 382 1372.33333333 419.5 1363 450.5 c 0
 1353.66666667 481.5 1340.83333333 506.666666667 1324.5 526 c 0
 1308.16666667 545.333333333 1289 559.333333333 1267 568 c 0
 1245 576.666666667 1221.66666667 581 1197 581 c 256
 1172.33333333 581 1149.16666667 576.666666667 1127.5 568 c 0
 1105.83333333 559.333333333 1087 545.333333333 1071 526 c 0
 1055 506.666666667 1042.5 481.5 1033.5 450.5 c 0
 1024.5 419.5 1020 382 1020 338 c 0
 1020 294.666666667 1024.5 258 1033.5 228 c 0
 1042.5 198 1055 173.5 1071 154.5 c 0
 1087 135.5 1105.83333333 121.833333333 1127.5 113.5 c 0
 1149.16666667 105.166666667 1172.33333333 101 1197 101 c 256
 1221.66666667 101 1245 105.166666667 1267 113.5 c 0
 1289 121.833333333 1308.16666667 135.5 1324.5 154.5 c 0
 1340.83333333 173.5 1353.66666667 198 1363 228 c 0
 1372.33333333 258 1377 294.666666667 1377 338 c 0
EndSplineSet
EndChar

StartChar: NameMe.66773
Encoding: 1114983 -1 20
Width: 1116
VWidth: 2000
Flags: W
LayerCount: 2
Fore
SplineSet
141 1473 m 1
 141 0 l 1
 247 0 l 2
 265 0 277.833333333 2.66666666667 285.5 8 c 0
 301.988187901 20.6292503073 312.154854568 29.6292503073 316 35 c 2
 810 725 l 1
 808.666666667 708.333333333 807.665971855 691.98332451 806.997915564 675.949973531 c 0
 806 631 l 2
 806.140625 0 l 1
 985.140625 0 l 1
 985 1013 l 1
 885 1013 l 2
 876.333333333 1013 867.5 1012.5 858.5 1011.5 c 0
 849.5 1010.5 842.666666667 1008.83333333 838 1006.5 c 0
 833.333333333 1004.16666667 828.666666667 1000.83333333 824 996.5 c 0
 817.372781065 990.204142012 812.372781065 984.704142012 809 980 c 2
 315 291 l 1
 316.333333333 308.333333333 317.5 325.166666667 318.5 341.5 c 0
 320 388 l 2
 320 1473 l 1
 141 1473 l 1
EndSplineSet
EndChar

StartChar: NameMe.66774
Encoding: 1114984 -1 21
Width: 1116
VWidth: 2000
Flags: W
LayerCount: 2
Fore
SplineSet
141 1013 m 1
 141 0 l 1
 247 0 l 2
 265 0 277.833333333 2.66666666667 285.5 8 c 0
 301.460409307 19.8920696796 311.627075973 28.8920696796 316 35 c 2
 810 725 l 1
 808.666666667 708.333333333 807.666666667 692 807 676 c 0
 806.333333333 660 806 645 806 631 c 2
 806 -343 l 1
 985 -343 l 1
 985 1013 l 1
 885 1013 l 2
 876.333333333 1013 867.5 1012.5 858.5 1011.5 c 0
 849.5 1010.5 842.666666667 1008.83333333 838 1006.5 c 0
 833.333333333 1004.16666667 828.666666667 1000.83333333 824 996.5 c 0
 817.372781065 990.204142012 812.372781065 984.704142012 809 980 c 2
 315 291 l 1
 316.333333333 308.333333333 317.5 325.166666667 318.5 341.5 c 0
 319.5 357.833333333 320 373.333333333 320 388 c 2
 320 1013 l 1
 141 1013 l 1
EndSplineSet
EndChar

StartChar: NameMe.66777
Encoding: 1114985 -1 22
Width: 840
VWidth: 2000
Flags: W
HStem: 0 21G<205.333 254.333 604.333 723> 993 20G<545 723>
VStem: 141 178.975<129.76 1473> 545 178<223.243 1013> 569 154<0.0812988 146>
LayerCount: 2
Fore
SplineSet
319.974647478 129.759511416 m 1xe8
 354.658215826 135.253170472 387.5 146.5 418.5 163.5 c 0
 464.166666667 188.5 506.333333333 223 545 267 c 1
 545 1013 l 1
 723 1013 l 1xf0
 723 0 l 1
 617 0 l 2
 591.666666667 0 575.666666667 12.3333333333 569 37 c 1
 555 146 l 1
 511 97.3333333333 461.666666667 59.6666666667 407 33 c 0
 352.333333333 6.33333333333 289.666666667 -7 219 -7 c 0
 191.666666667 -7 165.666666667 -4.71614583333 141 -0.1484375 c 1
 141 64 141 64 141 1473 c 1
 320 1473 l 1
 319.974647478 129.759511416 l 1xe8
EndSplineSet
EndChar

StartChar: NameMe.66775
Encoding: 1114986 -1 23
Width: 840
VWidth: 2000
Flags: W
VStem: 551 171<260.354 413>
LayerCount: 2
Fore
SplineSet
320 154.462890625 m 9
 320 1473 l 1
 141 1473 l 1
 141 0 l 1
 228 0 l 2
 380 0 500.833333333 37.6666666667 590.5 113 c 0
 677.962527665 186.162570671 721.795860999 284.495904004 722 408 c 2
 723 1013 l 1
 551 1013 l 1
 551 413 l 18
 551 267.666666667 474 181.487630208 320 154.462890625 c 9
EndSplineSet
EndChar

StartChar: NameMe.66778
Encoding: 1114987 -1 24
Width: 840
VWidth: 2000
Flags: W
HStem: 0 21G<141 319> 993 20G<141 259.667 609.667 658.667>
VStem: 141 178<0 789.757> 141 154<867 1012.92> 544 179<-343 883.24>
LayerCount: 2
Fore
SplineSet
544.025390625 883.240234375 m 1xd8
 509.341796875 877.746744792 476.5 866.5 445.5 849.5 c 0
 399.833333333 824.5 357.666666667 790 319 746 c 1
 319 0 l 1
 141 0 l 1xe8
 141 1013 l 1
 247 1013 l 2
 272.333333333 1013 288.333333333 1000.66666667 295 976 c 1
 309 867 l 1
 353 915.666666667 402.333333333 953.333333333 457 980 c 0
 511.666666667 1006.66666667 574.333333333 1020 645 1020 c 0
 672.333333333 1020 698.333333333 1017.71614583 723 1013.1484375 c 1
 723 1008 723 1008 723 -343 c 1
 544 -343 l 1
 544.025390625 883.240234375 l 1xd8
EndSplineSet
EndChar

StartChar: NameMe.66776
Encoding: 1114988 -1 25
Width: 840
VWidth: 2000
Flags: W
VStem: 141 172<600 752.646>
LayerCount: 2
Fore
SplineSet
544 858.537109375 m 9
 544 -343 l 1
 723 -343 l 1
 723 1013 l 1
 636 1013 l 2
 484 1013 363.166666667 975.333333333 273.5 900 c 0
 186.037472335 826.837429329 142.204139001 728.504095996 142 605 c 2
 141 0 l 1
 313 0 l 1
 313 600 l 18
 313 745.333333333 390 831.512369792 544 858.537109375 c 9
EndSplineSet
EndChar

StartChar: NameMe.66779
Encoding: 1114989 -1 26
Width: 1115
VWidth: 2000
Flags: W
HStem: 0 157<320 557.901> 993 20G<141 320 806 985>
VStem: 141 179<157 1013> 806 179<360.508 1013> 828 157<0.586182 283>
LayerCount: 2
Fore
SplineSet
816 283 m 1xe8
 721.333333333 94.3333333333 550.333333333 0 303 0 c 0
 222 0 222 0 141 0 c 1
 141 156 l 2
 141 943 l 0
 141 1013 l 1
 320 1013 l 0
 320 157 l 0
 328 157 l 2
 539.613168724 157 684.779835391 224.833333333 763.5 360.5 c 0
 779.166666667 387.5 793.333333333 418.333333333 806 453 c 1
 806 1013 l 1
 985 1013 l 1xf0
 985 0 l 1
 883 0 l 2
 848.008547009 -5.30538576034e-13 829.675213675 16.3333333333 828 49 c 2
 816 283 l 1xe8
EndSplineSet
EndChar

StartChar: NameMe.66780
Encoding: 1114990 -1 27
Width: 1115
VWidth: 2000
Flags: W
HStem: 0 156<320 442.461> 993 20G<141 320 817 985>
VStem: 141 179<156 1013> 806 179<0 726.656>
LayerCount: 2
Fore
SplineSet
985 1013 m 1
 985 0 l 1
 896 0 896 0 806 0 c 1
 806.140625 571 l 2
 806.157713654 640.387530589 807.597166779 684.387530589 810.458984375 703 c 0
 811.486328125 711.666666667 812.333333333 719.666666667 813 727 c 257
 745.666666667 242.333333333 568.324544271 0 280.973632812 0 c 2
 141 0 l 1
 141 1013 l 1
 320 1013 l 1
 320 156 l 1
 522.666666667 156 674.770182292 429.666666667 776.310546875 977 c 0
 780.770182292 1001 800 1013 834 1013 c 2
 985 1013 l 1
EndSplineSet
EndChar

StartChar: NameMe.66781
Encoding: 1114991 -1 28
Width: 728
VWidth: 2000
Flags: W
HStem: 0 21G<141 319> 856 175<450.866 699.777>
VStem: 141 178<0 734.019 812 1473>
LayerCount: 2
Fore
SplineSet
320 1473 m 5
 319 931 l 4
 319 812 l 5
 349.666666667 880 387.166666667 933.5 431.5 972.5 c 4
 475.833333333 1011.5 531.333333333 1031 598 1031 c 4
 620 1031 640.666666667 1028.66666667 660 1024 c 4
 679.333333333 1019.33333333 696.666666667 1012.33333333 712 1003 c 5
 700 870 l 5
 695.333333333 852.666666667 685 844 669 844 c 4
 659.666666667 844 646 846 628 850 c 4
 610 854 590 856 568 856 c 4
 535.333333333 856 506.5 851.166666667 481.5 841.5 c 4
 456.5 831.833333333 434.166666667 817.833333333 414.5 799.5 c 4
 394.833333333 781.166666667 377.333333333 758.5 362 731.5 c 4
 346.666666667 704.5 332.333333333 673.333333333 319 638 c 5
 319 0 l 5
 203 0 l 4
 141 0 l 5
 141 1473 l 5
 320 1473 l 5
EndSplineSet
EndChar

StartChar: NameMe.66782
Encoding: 1114992 -1 29
Width: 728
VWidth: 2000
Flags: W
HStem: -14 175<53.2229 302.134> 993 20G<434 612>
VStem: 434 178<-343 205 282.981 1013>
LayerCount: 2
Fore
SplineSet
433 -343 m 1
 434 86 l 0
 434 205 l 1
 403.333333333 137 365.833333333 83.5 321.5 44.5 c 0
 277.166666667 5.5 221.666666667 -14 155 -14 c 0
 133 -14 112.333333333 -11.6666666667 93 -7 c 0
 73.6666666667 -2.33333333333 56.3333333333 4.66666666667 41 14 c 1
 53 147 l 1
 57.6666666667 164.333333333 68 173 84 173 c 0
 93.3333333333 173 107 171 125 167 c 0
 143 163 163 161 185 161 c 0
 217.666666667 161 246.5 165.833333333 271.5 175.5 c 0
 296.5 185.166666667 318.833333333 199.166666667 338.5 217.5 c 0
 358.166666667 235.833333333 375.666666667 258.5 391 285.5 c 0
 406.333333333 312.5 420.666666667 343.666666667 434 379 c 1
 434 1013 l 1
 550 1013 l 0
 612 1013 l 1
 612 -343 l 1
 433 -343 l 1
EndSplineSet
EndChar

StartChar: NameMe.66783
Encoding: 1114993 -1 30
Width: 955
VWidth: 2000
Flags: W
HStem: -353 138<452.558 761.44> 890 139<453.513 766.657>
VStem: 113 183<-6.38141 678.851>
LayerCount: 2
Fore
SplineSet
875 833 m 2
 869.666666667 825.666666667 864.333333333 820 859 816 c 0
 853.666666667 812 846.333333333 810 837 810 c 0
 827 810 816 814.166666667 804 822.5 c 0
 792 830.833333333 777.5 840 760.5 850 c 0
 743.5 860 723 869.166666667 699 877.5 c 0
 675 885.833333333 645.666666667 890 611 890 c 0
 558.333333333 890 512.333333333 879.333333333 473 858 c 0
 433.666666667 836.666666667 400.833333333 803.5 374.5 758.5 c 0
 348.166666667 713.5 328.5 656.166666667 315.5 586.5 c 0
 302.5 516.833333333 296 434 296 338 c 0
 296 236.666666667 303 150.833333333 317 80.5 c 0
 331 10.1666666667 351.5 -46.8333333333 378.5 -90.5 c 0
 405.5 -134.166666667 438.5 -165.833333333 477.5 -185.5 c 0
 516.5 -205.166666667 561 -215 611 -215 c 0
 649 -215 680.666666667 -209.833333333 706 -199.5 c 0
 731.333333333 -189.166666667 752.666666667 -177.666666667 770 -165 c 0
 787.333333333 -152.333333333 802 -140.833333333 814 -130.5 c 0
 826 -120.166666667 838 -115 850 -115 c 0
 857.333333333 -115 863.833333333 -116.5 869.5 -119.5 c 0
 875.166666667 -122.5 880 -126.666666667 884 -132 c 2
 934 -197 l 1
 912 -224.333333333 887.166666667 -247.666666667 859.5 -267 c 0
 831.833333333 -286.333333333 802.5 -302.5 771.5 -315.5 c 0
 740.5 -328.5 708.666666667 -338 676 -344 c 0
 643.333333333 -350 611.333333333 -353 580 -353 c 0
 511.333333333 -353 448.5 -340.5 391.5 -315.5 c 0
 334.5 -290.5 285.333333333 -250.833333333 244 -196.5 c 0
 202.666666667 -142.166666667 170.5 -72 147.5 14 c 0
 124.5 100 113 204.333333333 113 327 c 0
 113 557.666666667 154.333333333 732.333333333 237 851 c 0
 319.666666667 969.666666667 439.333333333 1029 596 1029 c 0
 664 1029 724.833333333 1017.5 778.5 994.5 c 0
 832.166666667 971.5 880 939 922 897 c 1
 875 833 l 2
EndSplineSet
EndChar

StartChar: NameMe.66784
Encoding: 1114994 -1 31
Width: 904
VWidth: 2000
Flags: W
HStem: -362 135<338.113 634.696>
VStem: 60 152<-102.349 235.89>
LayerCount: 2
Fore
SplineSet
593 874 m 1
 216.33203125 439 l 2
 112.110677083 318.333333333 60 185 60 39 c 3
 60 -81.6666666667 101.333333333 -179.666666667 184 -255 c 0
 262 -326.333333333 358.333333333 -362 473 -362 c 0
 613 -362 732.666666667 -306.666666667 832 -196 c 1
 789 -139 l 2
 766.333333333 -108.333333333 740 -105.333333333 710 -130 c 1
 634 -194.666666667 560 -227 488 -227 c 3
 415.333333333 -227 351 -201.666666667 295 -151 c 0
 239.666666667 -101 212 -26.8499348958 212 71.4501953125 c 3
 212 162.584473898 253.662109375 255.642742127 336.986328125 350.625 c 2
 797 875 l 2
 804.333333333 883 810.323567708 894.137695313 814.970703125 908.413085938 c 0
 818.990234375 920.137695313 821 930.333333333 821 939 c 2
 821 1013 l 1
 58 1013 l 1
 58 874 l 1
 593 874 l 1
EndSplineSet
EndChar

StartChar: py
Encoding: 60800 60800 32
Width: 1089
VWidth: 2000
GlyphClass: 2
Flags: W
HStem: 0 157<320 509.108> 993 20G<806 987> 1498 20G<141 320>
VStem: 141 179<157 1518> 806 179<598.016 1013>
AnchorPoint: "Top" 761 1328.1 basechar 0
AnchorPoint: "Bottom" 457 0 basechar 0
LayerCount: 2
Fore
SplineSet
816 283 m 24
 688.980585719 94.3333333333 517.980585719 2.51280477907e-14 303 0 c 0
 222 0 222 0 141 0 c 1
 141 156 l 1
 141 943 l 1
 141 1013 l 1
 141 1518 l 1
 320 1518 l 1
 320 1013 l 1
 320 157 l 1
 328 157 l 2
 477.333333333 157 592 225 672 361 c 0
 761.333333333 513 806 730.333333333 806 1013 c 1
 985 1013 l 24
 989 700.333333333 932.666666667 457 816 283 c 24
EndSplineSet
EndChar

StartChar: ty
Encoding: 60801 60801 33
Width: 1116
VWidth: 2000
GlyphClass: 2
Flags: W
HStem: 0 21G<141 320 806 985> 887 142<459.256 733.524> 1498 20G<141 320>
VStem: 141 179<0 789.232 878 1518> 806 179<0 811.141>
AnchorPoint: "Top" 697 1332.1 basechar 0
AnchorPoint: "Bottom" 561 0 basechar 0
LayerCount: 2
Fore
SplineSet
320 878 m 1
 363.333333333 924 411.333333333 960.666666667 464 988 c 0
 516.666666667 1015.33333333 577.333333333 1029 646 1029 c 0
 701.333333333 1029 750.166666667 1019.83333333 792.5 1001.5 c 0
 834.833333333 983.166666667 870.166666667 957.166666667 898.5 923.5 c 0
 926.833333333 889.833333333 948.333333333 849.333333333 963 802 c 0
 977.666666667 754.666666667 985 702.333333333 985 645 c 2
 985 0 l 1
 806 0 l 1
 806 645 l 2
 806 721.666666667 788.5 781.166666667 753.5 823.5 c 0
 718.5 865.833333333 665.333333333 887 594 887 c 0
 541.333333333 887 492.166666667 874.333333333 446.5 849 c 0
 400.833333333 823.666666667 358.666666667 789.333333333 320 746 c 1
 320 0 l 1
 141 0 l 1
 141 1518 l 1
 320 1518 l 1
 320 878 l 1
EndSplineSet
EndChar

StartChar: ky
Encoding: 60802 60802 34
Width: 1115
VWidth: 2000
GlyphClass: 2
Flags: HMW
VStem: 145 180 806 179<631 723.485>
AnchorPoint: "Top" 681 1329 basechar 0
AnchorPoint: "Bottom" 543 0 basechar 0
LayerCount: 2
Fore
SplineSet
810 725 m 1
 808.094838339 692.612251755 806 664.222411184 806 631 c 2
 806 0 l 1
 985 0 l 1
 985 1013 l 1
 885 1013 l 2
 862.034004989 1013 840.991169276 1007.98675391 833 996 c 0
 824 986 819 981 818 980 c 2
 315 291 l 1
 316 308 317 325 318 342 c 0
 319 359 320 375 320 388 c 2
 320 1518 l 1
 141 1518 l 1
 141 0 l 1
 247 0 l 2
 266 0 278 3 286 9 c 2
 316 35 l 1
 810 725 l 1
EndSplineSet
EndChar

StartChar: fy
Encoding: 60803 60803 35
Width: 904
VWidth: 2000
GlyphClass: 2
Flags: W
VStem: 381 179<399.687 656>
AnchorPoint: "Top" 466 1333.1 basechar 0
AnchorPoint: "Bottom" 462 0 basechar 0
LayerCount: 2
Fore
SplineSet
267 139 m 0
 353 168 l 0
 491 283.333333333 560 446 560 656 c 2
 560 1013 l 1
 382 1013 l 0
 381 563 l 2
 380.333333333 384.333333333 274.666666667 233.833333333 64 111.5 c 0
 60 109.166666667 58 96.6666666667 58 74 c 2
 58 0 l 1
 821 0 l 1
 821 139 l 1
 267 139 l 0
EndSplineSet
EndChar

StartChar: ly
Encoding: 60804 60804 36
Width: 955
VWidth: 2000
GlyphClass: 2
Flags: W
HStem: -14 138<406.378 729.195> 890 139<407.582 737.999>
VStem: 84 182<283.201 731.294>
AnchorPoint: "Top" 549 1325.1 basechar 0
AnchorPoint: "Bottom" 532 0 basechar 0
LayerCount: 2
Fore
SplineSet
846 833 m 2
 840.666666667 825.666666667 835.333333333 820 830 816 c 0
 824.666666667 812 817.333333333 810 808 810 c 0
 798 810 787 814.166666667 775 822.5 c 0
 763 830.833333333 748.166666667 840 730.5 850 c 0
 712.833333333 860 691.166666667 869.166666667 665.5 877.5 c 0
 639.833333333 885.833333333 608.333333333 890 571 890 c 0
 521 890 477 881.166666667 439 863.5 c 0
 401 845.833333333 369.166666667 820.333333333 343.5 787 c 0
 317.833333333 753.666666667 298.5 713.333333333 285.5 666 c 0
 272.5 618.666666667 266 565.666666667 266 507 c 0
 266 445.666666667 273 391.166666667 287 343.5 c 0
 301 295.833333333 320.833333333 255.833333333 346.5 223.5 c 0
 372.166666667 191.166666667 403.166666667 166.5 439.5 149.5 c 0
 475.833333333 132.5 516.666666667 124 562 124 c 0
 605.333333333 124 641 129.166666667 669 139.5 c 0
 697 149.833333333 720.166666667 161.333333333 738.5 174 c 0
 756.833333333 186.666666667 772.166666667 198.166666667 784.5 208.5 c 0
 796.833333333 218.833333333 809 224 821 224 c 0
 835.666666667 224 847 218.333333333 855 207 c 2
 905 142 l 1
 883 114.666666667 858 91.3333333333 830 72 c 0
 802 52.6666666667 771.833333333 36.5 739.5 23.5 c 0
 707.166666667 10.5 673.333333333 1 638 -5 c 0
 602.666666667 -11 566.666666667 -14 530 -14 c 0
 466.666666667 -14 407.833333333 -2.33333333333 353.5 21 c 0
 299.166666667 44.3333333333 252 78.1666666667 212 122.5 c 0
 172 166.833333333 140.666666667 221.333333333 118 286 c 0
 95.3333333333 350.666666667 84 424.333333333 84 507 c 0
 84 582.333333333 94.5 652 115.5 716 c 0
 136.5 780 167.166666667 835.166666667 207.5 881.5 c 0
 247.833333333 927.833333333 297.5 964 356.5 990 c 0
 415.5 1016 483.333333333 1029 560 1029 c 0
 631.333333333 1029 694.166666667 1017.5 748.5 994.5 c 0
 802.833333333 971.5 851 939 893 897 c 1
 846 833 l 2
EndSplineSet
EndChar

StartChar: sy
Encoding: 60805 60805 37
Width: 1135
VWidth: 2000
GlyphClass: 2
Flags: W
HStem: -14 142<394.248 699.495>
VStem: 86 184<269.659 735.626> 821 178<256.937 435>
AnchorPoint: "Top" 474 1331.2 basechar 0
AnchorPoint: "Bottom" 558 0 basechar 0
LayerCount: 2
Fore
SplineSet
564 997 m 1
 527.7890625 1012.796875 425.622070312 1031.296875 339.5 988.5 c 1
 285.166992188 961.5 239.333007812 924.5 202 877.5 c 0
 164.666992188 830.5 136 774.833007812 116 710.5 c 0
 96 646.166992188 86 576.666992188 86 502 c 0
 86 419.333007812 98.1669921875 346 122.5 282 c 0
 146.833007812 218 179.833007812 164 221.5 120 c 0
 263.166992188 76 312.166992188 42.6669921875 368.5 20 c 0
 424.833007812 -2.6669921875 485 -14 549 -14 c 0
 619 -14 681.833007812 -3.5 737.5 17.5 c 0
 793.166992188 38.5 840.333007812 68.5 879 107.5 c 0
 927.666992188 157.166992188 957.333007812 204.333007812 968 249 c 0
 988.666992188 334.333007812 999 396.333007812 999 435 c 2
 999 1518 l 1
 821 1518 l 1
 821 903 l 1
 821 751 l 1
 821 435 l 2
 821 386.333007812 813.833007812 343 799.5 305 c 0
 785.166992188 267 765.833007812 234.833007812 741.5 208.5 c 0
 717.166992188 182.166992188 688.5 162.166992188 655.5 148.5 c 0
 622.5 134.833007812 587 128 549 128 c 0
 507.666992188 128 469.833007812 135 435.5 149 c 0
 401.166992188 163 371.833007812 185.166992188 347.5 215.5 c 0
 323.166992188 245.833007812 304.166992188 284.666992188 290.5 332 c 0
 276.833007812 379.333007812 270 436 270 502 c 0
 270 626.666992188 295.333007812 722.666992188 346 790 c 0
 383.885742188 840.34765625 476 880.146484375 496 884.573242188 c 0
 516 889 536 885 542 919 c 0
 564 997 l 1
EndSplineSet
EndChar

StartChar: cy
Encoding: 60806 60806 38
Width: 1116
VWidth: 2000
GlyphClass: 2
Flags: W
HStem: 0 21G<141 320 806.139 985> 887 142<436.363 734.143> 993 20G<141 260.667> 1498 20G<806 985>
VStem: 141 179<0 788.771> 141 154<866 1012.92> 806.141 178.859<0 810.764 914.97 1518>
AnchorPoint: "Top" 449 1337.1 basechar 0
AnchorPoint: "Bottom" 573 0 basechar 0
LayerCount: 2
Fore
SplineSet
309 866 m 1xb6
 346.333333333 908 366.329752604 930.333333333 368.989257812 933 c 0
 388.996419271 953 410.723958333 970.166666667 434.171875 984.5 c 0
 457.390625 998.833333333 481.747721354 1009.83333333 507.243164062 1017.5 c 0
 533.081054687 1025.16666667 560.898111979 1029 590.694335938 1029 c 0
 636.231445313 1029 676.780924479 1019.83333333 712.342773438 1001.5 c 0
 749.447591146 982.5 778.786783854 956.5 800.360351562 923.5 c 0
 806.053274235 914.970144555 l 2
 806 1518 l 1
 985 1518 l 1
 985 -0 l 1
 975 0 l 1
 806.140625 0 l 1
 806.079008404 645.413301806 l 1
 796.026336135 733.804433935 778.573242187 793.166666667 753.719726562 823.5 c 0
 719.239908854 865.833333333 666.168945313 887 594.506835938 887 c 0
 541.502278646 887 492.424153646 874.333333333 447.272460938 849 c 0
 400.424153646 823 358 788.666666667 320 746 c 1
 320 0 l 1
 141 0 l 1xda
 141 1013 l 1
 248 1013 l 2
 273.333333333 1013 289 1000.66666667 295 976 c 1
 309 866 l 1xb6
EndSplineSet
EndChar

StartChar: my
Encoding: 60807 60807 39
Width: 904
VWidth: 2000
GlyphClass: 2
Flags: HMW
HStem: 0 140 896 133<228.07 540.841>
AnchorPoint: "Top" 427 1330.1 basechar 0
AnchorPoint: "Bottom" 458 0 basechar 0
LayerCount: 2
Fore
SplineSet
267 139 m 1
 520.66796875 372 l 2
 679.555989583 518 759 635.5 759 724.5 c 3
 759 927.5 639.666666667 1029 401 1029 c 0
 272.333333333 1029 166.666666667 989.666666667 84 911 c 1
 124 846 l 2
 133.333333333 831.333333333 144.333333333 824 157 824 c 0
 169.666666667 824 182.333333333 827.666666667 195 835 c 0
 207.666666667 842.333333333 223.166666667 850.5 241.5 859.5 c 0
 291.166666667 883.833333333 336.975308642 896 378.925925926 896 c 0
 420.975308642 896 454 892.166666667 478 884.5 c 0
 502 876.833333333 522.5 866.333333333 539.5 853 c 0
 575.833333333 824.333333333 591.666666667 785.02734375 587 735.08203125 c 0
 581.637682717 671.34952882 536.308906676 596.44718507 451.013671875 510.375 c 26
 82 138 l 2
 66 122 58 100.666666667 58 74 c 2
 58 0 l 1
 821 0 l 1
 821 139 l 1
 267 139 l 1
EndSplineSet
EndChar

StartChar: xy
Encoding: 60808 60808 40
Width: 1134
VWidth: 2000
GlyphClass: 2
Flags: W
HStem: -14 139<401.365 732.998> 889 140<402.915 731.54>
VStem: 84 183<276.574 738.189> 866 184<276.574 736.833>
AnchorPoint: "Top" 570 1327.1 basechar 0
AnchorPoint: "Bottom" 569 0 basechar 0
LayerCount: 2
Fore
SplineSet
568 1029 m 0
 642 1029 708.666666667 1016.66666667 768 992 c 0
 827.333333333 967.333333333 878 932.333333333 920 887 c 0
 962 841.666666667 994.166666667 786.833333333 1016.5 722.5 c 0
 1038.83333333 658.166666667 1050 586.333333333 1050 507 c 0
 1050 427 1038.83333333 355 1016.5 291 c 0
 994.166666667 227 962 172.333333333 920 127 c 0
 878 81.6666666667 827.333333333 46.8333333333 768 22.5 c 0
 708.666666667 -1.83333333333 642 -14 568 -14 c 0
 493.333333333 -14 426.166666667 -1.83333333333 366.5 22.5 c 0
 306.833333333 46.8333333333 256 81.6666666667 214 127 c 0
 172 172.333333333 139.833333333 227 117.5 291 c 0
 95.1666666667 355 84 427 84 507 c 0
 84 586.333333333 95.1666666667 658.166666667 117.5 722.5 c 0
 139.833333333 786.833333333 172 841.666666667 214 887 c 0
 256 932.333333333 306.833333333 967.333333333 366.5 992 c 0
 426.166666667 1016.66666667 493.333333333 1029 568 1029 c 0
568 125 m 0
 668 125 742.666666667 158.5 792 225.5 c 0
 841.333333333 292.5 866 386 866 506 c 0
 866 626.666666667 841.333333333 720.666666667 792 788 c 0
 742.666666667 855.333333333 668 889 568 889 c 0
 517.333333333 889 473.166666667 880.333333333 435.5 863 c 0
 397.833333333 845.666666667 366.5 820.666666667 341.5 788 c 0
 316.5 755.333333333 297.833333333 715.166666667 285.5 667.5 c 0
 273.166666667 619.833333333 267 566 267 506 c 0
 267 386 291.833333333 292.5 341.5 225.5 c 0
 391.166666667 158.5 466.666666667 125 568 125 c 0
EndSplineSet
EndChar

StartChar: denpabu
Encoding: 60809 60809 41
Width: 520
VWidth: 2000
GlyphClass: 2
Flags: W
HStem: 402 251<163.086 353.617>
VStem: 134 250<431.403 622.617>
AnchorPoint: "Top" 246 1325.1 basechar 0
AnchorPoint: "Bottom" 262 0 basechar 0
LayerCount: 2
Fore
SplineSet
134 527 m 0
 134 544.333333333 137.166666667 560.666666667 143.5 576 c 0
 149.833333333 591.333333333 158.5 604.666666667 169.5 616 c 0
 180.5 627.333333333 193.666666667 636.333333333 209 643 c 0
 224.333333333 649.666666667 240.666666667 653 258 653 c 256
 275.333333333 653 291.666666667 649.666666667 307 643 c 0
 322.333333333 636.333333333 335.666666667 627.333333333 347 616 c 0
 358.333333333 604.666666667 367.333333333 591.333333333 374 576 c 0
 380.666666667 560.666666667 384 544.333333333 384 527 c 0
 384 509 380.666666667 492.5 374 477.5 c 0
 367.333333333 462.5 358.333333333 449.333333333 347 438 c 0
 335.666666667 426.666666667 322.333333333 417.833333333 307 411.5 c 0
 291.666666667 405.166666667 275.333333333 402 258 402 c 256
 240.666666667 402 224.333333333 405.166666667 209 411.5 c 0
 193.666666667 417.833333333 180.5 426.666666667 169.5 438 c 0
 158.5 449.333333333 149.833333333 462.5 143.5 477.5 c 0
 137.166666667 492.5 134 509 134 527 c 0
EndSplineSet
Substitution2: "Single Substitution lookup 37 subtable" denpabu.cas
EndChar

StartChar: yhy
Encoding: 60810 60810 42
Width: 480
VWidth: 2000
GlyphClass: 2
Flags: HMW
HStem: 0 21G<151 329> 872 140
VStem: 151 178<0 1013>
AnchorPoint: "Top" 235 1327.1 basechar 0
AnchorPoint: "Bottom" 240 0 basechar 0
LayerCount: 2
Fore
SplineSet
329 1013 m 1
 329 0 l 1
 151 0 l 1
 151 1013 l 1
 329 1013 l 1
EndSplineSet
EndChar

StartChar: cnimahobu
Encoding: 60811 60811 43
Width: 940
VWidth: 2000
GlyphClass: 2
Flags: W
HStem: 0 21G<620 798> 620 175<54.5579 424.135> 993 20G<616 798>
VStem: 620 178<0 839>
LayerCount: 2
Fore
SplineSet
620 0 m 1
 620 839 l 1
 594.666666667 783 538.979166667 729.5 452.9375 678.5 c 0
 386.979166667 639.5 304.561523437 620 205.684570312 620 c 0
 173.228190104 620 142.538411458 622.333333333 113.615234375 627 c 0
 85.205078125 631.666666667 59.46484375 638.666666667 36.39453125 648 c 1
 54.21484375 781 l 1
 61.4049479167 798.333333333 76.75 807 100.25 807 c 0
 114.083333333 807 134.378255208 805 161.134765625 801 c 0
 187.711588542 797 217.411783854 795 250.235351562 795 c 0
 298.745117187 795 341.5625 799.833333333 378.6875 809.5 c 0
 415.5625 819.166666667 448.727539063 833.166666667 478.182617188 851.5 c 0
 507.394205729 869.833333333 533.381510417 892.5 556.14453125 919.5 c 0
 590.71484375 960.5 612 991.666666667 620 1013 c 1
 798 1013 l 1
 798 0 l 1
 620 0 l 1
EndSplineSet
EndChar

StartChar: patonga
Encoding: 60812 60812 44
Width: 0
VWidth: 2000
GlyphClass: 4
Flags: W
HStem: -413 286
VStem: -200.5 401
AnchorPoint: "Bottom" 0 0 mark 0
LayerCount: 2
Fore
SplineSet
200.5 -127 m 5
 -32.5 -385 l 6
 -41.8333333333 -395 -51 -402.166666667 -60 -406.5 c 4
 -69 -410.833333333 -80.5 -413 -94.5 -413 c 6
 -200.5 -413 l 5
 -52.5 -171 l 6
 -43.1666666667 -155.666666667 -33 -144.5 -22 -137.5 c 4
 -11 -130.5 5.16666666667 -127 26.5 -127 c 6
 200.5 -127 l 5
EndSplineSet
EndChar

StartChar: retonga
Encoding: 60813 60813 45
Width: 0
VWidth: 2000
GlyphClass: 4
Flags: W
HStem: -413 286
VStem: -198.5 397
AnchorPoint: "Bottom" -0 -0 mark 0
LayerCount: 2
Fore
SplineSet
-29.5 -127 m 6
 -7.5 -127 8.83333333333 -130.5 19.5 -137.5 c 4
 30.1666666667 -144.5 40.1666666667 -155.666666667 49.5 -171 c 6
 198.5 -413 l 5
 96.5 -413 l 6
 82.5 -413 71.1666666667 -410.833333333 62.5 -406.5 c 4
 53.8333333333 -402.166666667 44.8333333333 -395 35.5 -385 c 6
 -198.5 -127 l 5
 -29.5 -127 l 6
EndSplineSet
EndChar

StartChar: citonga
Encoding: 60814 60814 46
Width: 0
VWidth: 2000
GlyphClass: 4
Flags: W
AnchorPoint: "Bottom" 0 0 mark 0
LayerCount: 2
Fore
SplineSet
306 -403 m 5
 83 -139 l 5
 -83 -139 l 5
 -306 -403 l 5
 -183 -403 l 6
 -175 -403 -167.333333333 -401.333333333 -160 -398 c 4
 -152.666666667 -394.666666667 -147 -391.333333333 -143 -388 c 6
 -15 -252 l 6
 -11.6666666667 -248.666666667 -8.83333333333 -245.333333333 -6.5 -242 c 4
 -4.16666666667 -238.666666667 -1.33333333333 -235.333333333 2 -232 c 5
 5.33333333333 -235.333333333 8.16666666667 -238.666666667 10.5 -242 c 4
 12.8333333333 -245.333333333 15.6666666667 -248.666666667 19 -252 c 6
 147 -388 l 6
 151.666666667 -391.333333333 157.666666667 -394.666666667 165 -398 c 4
 172.333333333 -401.333333333 179.666666667 -403 187 -403 c 6
 306 -403 l 5
EndSplineSet
EndChar

StartChar: votonga
Encoding: 60815 60815 47
Width: 0
VWidth: 2000
GlyphClass: 4
Flags: W
HStem: -393 264
VStem: -306 612
AnchorPoint: "Bottom" 0 0 mark 0
LayerCount: 2
Fore
SplineSet
306 -129 m 1
 83 -393 l 1
 -83 -393 l 1
 -306 -129 l 1
 -183 -129 l 2
 -175 -129 -167.333333333 -130.666666667 -160 -134 c 0
 -152.666666667 -137.333333333 -147 -140.666666667 -143 -144 c 2
 -15 -280 l 2
 -11.6666666667 -283.333333333 -8.83333333333 -286.666666667 -6.5 -290 c 0
 -4.16666666667 -293.333333333 -1.33333333333 -296.666666667 2 -300 c 1
 5.33333333333 -296.666666667 8.16666666667 -293.333333333 10.5 -290 c 0
 12.8333333333 -286.666666667 15.6666666667 -283.333333333 19 -280 c 2
 147 -144 l 2
 151.666666667 -140.666666667 157.666666667 -137.333333333 165 -134 c 0
 172.333333333 -130.666666667 179.666666667 -129 187 -129 c 2
 306 -129 l 1
EndSplineSet
EndChar

StartChar: by
Encoding: 60816 60816 48
Width: 1031
VWidth: 2000
GlyphClass: 2
Flags: W
HStem: 0 21G<55 236> 856 157<532.892 722>
VStem: 57 179<0 414.984> 722 179<-506 856>
AnchorPoint: "Top" 704 1324.2 basechar 0
AnchorPoint: "Bottom" 432 0 basechar 0
LayerCount: 2
Fore
SplineSet
226 730 m 24
 353.019414281 918.666666667 524.019414281 1013 739 1013 c 0
 820 1013 820 1013 901 1013 c 1
 901 857 l 1
 901 70 l 1
 901 0 l 1
 901 -506 l 5
 722 -506 l 1
 722 0 l 1
 722 856 l 1
 714 856 l 2
 564.666666667 856 450 788 370 652 c 0
 280.666666667 500 236 282.666666667 236 0 c 1
 57 0 l 24
 53 312.666666667 109.333333333 556 226 730 c 24
EndSplineSet
EndChar

StartChar: dy
Encoding: 60817 60817 49
Width: 1115
VWidth: 2000
GlyphClass: 2
Flags: W
HStem: -16 142<380.868 657.274> 993 20G<131 309 796 974>
VStem: 131 178<201.27 1013> 796 178<-506 135.2 223.243 1013>
AnchorPoint: "Top" 547 1330.1 basechar 0
AnchorPoint: "Bottom" 448 1 basechar 0
LayerCount: 2
Fore
SplineSet
796 135.199767736 m 1
 754.666666667 91.733255912 708.666666667 56.1666666667 658 28.5 c 0
 603.333333333 -1.16666666667 540.666666667 -16 470 -16 c 0
 414.666666667 -16 365.833333333 -6.83333333333 323.5 11.5 c 0
 281.166666667 29.8333333333 245.666666667 55.6666666667 217 89 c 0
 188.333333333 122.333333333 166.833333333 162.666666667 152.5 210 c 0
 138.166666667 257.333333333 131 309.666666667 131 367 c 2
 131 1013 l 1
 309 1013 l 1
 309 367 l 2
 309 290.333333333 326.5 231 361.5 189 c 0
 396.5 147 450 126 522 126 c 0
 574.666666667 126 623.833333333 138.5 669.5 163.5 c 0
 715.166666667 188.5 757.333333333 223 796 267 c 1
 796 1013 l 1
 974 1013 l 1
 974 2.81996648255e-14 l 1
 974 -506 l 1
 796 -506 l 1
 796 135.199767736 l 1
EndSplineSet
EndChar

StartChar: gy
Encoding: 60818 60818 50
Width: 1115
VWidth: 2000
GlyphClass: 2
Flags: WO
VStem: 141 179<289.502 382> 806 179<625 720.574>
AnchorPoint: "Top" 570 1330.1 basechar 0
AnchorPoint: "Bottom" 443 0 basechar 0
LayerCount: 2
Fore
SplineSet
811 722 m 1
 808.666767475 691.66113986 806 655.476598078 806 625 c 2
 806 -506 l 1
 985 -506 l 1
 985 1013 l 1
 879 1013 l 2
 859.307987141 1013 846.202843912 1010.109375 839.684570312 1004.328125 c 2
 810 978 l 1
 316 288 l 1
 318.467443297 320.083993475 320 349.287080045 320 382 c 2
 320 1013 l 1
 141 1013 l 1
 141 0 l 1
 241 0 l 2
 263.569574855 0 285.112996987 4.66949548125 293 16.5 c 0
 302.333333333 26.8333333333 307.333333333 32.3333333333 308 33 c 2
 811 722 l 1
EndSplineSet
EndChar

StartChar: vy
Encoding: 60819 60819 51
Width: 904
VWidth: 2000
GlyphClass: 2
Flags: HMW
HStem: 0 20 872 140
VStem: 319 178<357 613.313>
AnchorPoint: "Top" 421 1331.1 basechar 0
AnchorPoint: "Bottom" 410 0 basechar 0
LayerCount: 2
Fore
SplineSet
612 873 m 0
 526 845 l 0
 388 729.666666667 319 567 319 357 c 2
 319 0 l 1
 497 0 l 0
 498 450 l 2
 498.666666667 628.666666667 604.333333333 779.166666667 815 901.5 c 0
 819 903.833333333 821 916.333333333 821 939 c 2
 821 1013 l 1
 58 1013 l 1
 58 873 l 1
 612 873 l 0
EndSplineSet
EndChar

StartChar: ry
Encoding: 60820 60820 52
Width: 955
VWidth: 2000
GlyphClass: 2
Flags: W
HStem: -14 138<259.805 582.622> 890 139<251.001 581.418>
VStem: 723 182<283.201 731.294>
AnchorPoint: "Top" 497 1328 basechar 0
AnchorPoint: "Bottom" 472 0 basechar 0
LayerCount: 2
Fore
SplineSet
143 833 m 2
 148.333333333 825.666666667 153.666666667 820 159 816 c 0
 164.333333333 812 171.666666667 810 181 810 c 0
 191 810 202 814.166666667 214 822.5 c 0
 226 830.833333333 240.833333333 840 258.5 850 c 0
 276.166666667 860 297.833333333 869.166666667 323.5 877.5 c 0
 349.166666667 885.833333333 380.666666667 890 418 890 c 0
 468 890 512 881.166666667 550 863.5 c 0
 588 845.833333333 619.833333333 820.333333333 645.5 787 c 0
 671.166666667 753.666666667 690.5 713.333333333 703.5 666 c 0
 716.5 618.666666667 723 565.666666667 723 507 c 0
 723 445.666666667 716 391.166666667 702 343.5 c 0
 688 295.833333333 668.166666667 255.833333333 642.5 223.5 c 0
 616.833333333 191.166666667 585.833333333 166.5 549.5 149.5 c 0
 513.166666667 132.5 472.333333333 124 427 124 c 0
 383.666666667 124 348 129.166666667 320 139.5 c 0
 292 149.833333333 268.833333333 161.333333333 250.5 174 c 0
 232.166666667 186.666666667 216.833333333 198.166666667 204.5 208.5 c 0
 192.166666667 218.833333333 180 224 168 224 c 0
 153.333333333 224 142 218.333333333 134 207 c 2
 84 142 l 1
 106 114.666666667 131 91.3333333333 159 72 c 0
 187 52.6666666667 217.166666667 36.5 249.5 23.5 c 0
 281.833333333 10.5 315.666666667 1 351 -5 c 0
 386.333333333 -11 422.333333333 -14 459 -14 c 0
 522.333333333 -14 581.166666667 -2.33333333333 635.5 21 c 0
 689.833333333 44.3333333333 737 78.1666666667 777 122.5 c 0
 817 166.833333333 848.333333333 221.333333333 871 286 c 0
 893.666666667 350.666666667 905 424.333333333 905 507 c 0
 905 582.333333333 894.5 652 873.5 716 c 0
 852.5 780 821.833333333 835.166666667 781.5 881.5 c 0
 741.166666667 927.833333333 691.5 964 632.5 990 c 0
 573.5 1016 505.666666667 1029 429 1029 c 0
 357.666666667 1029 294.833333333 1017.5 240.5 994.5 c 0
 186.166666667 971.5 138 939 96 897 c 1
 143 833 l 2
EndSplineSet
EndChar

StartChar: zy
Encoding: 60821 60821 53
Width: 1135
VWidth: 2000
GlyphClass: 2
Flags: W
HStem: 887 142<427.505 732.752>
VStem: 128 178<580 758.063> 857 184<279.374 745.341>
AnchorPoint: "Top" 570 1332.1 basechar 0
AnchorPoint: "Bottom" 691 0 basechar 0
LayerCount: 2
Fore
SplineSet
563 18 m 1
 599.2109375 2.203125 701.377926815 -16.2968584539 787.5 26.5 c 1
 841.833333333 53.5 887.666666667 90.5 925 137.5 c 0
 962.333333333 184.5 991 240.166666667 1011 304.5 c 0
 1031 368.833333333 1041 438.333333333 1041 513 c 0
 1041 595.666666667 1028.83333333 669 1004.5 733 c 0
 980.166666667 797 947.166666667 851 905.5 895 c 0
 863.833333333 939 814.833333333 972.333333333 758.5 995 c 0
 702.166666667 1017.66666667 642 1029 578 1029 c 0
 508 1029 445.166666667 1018.5 389.5 997.5 c 0
 333.833333333 976.5 286.666666667 946.5 248 907.5 c 0
 199.333333333 857.833333333 169.666666667 810.666666667 159 766 c 0
 138.333333333 680.666666667 128 618.666666667 128 580 c 2
 128 -506 l 1
 306 -506 l 1
 306 112 l 1
 306 264 l 1
 306 580 l 2
 306 628.666666667 313.166666667 672 327.5 710 c 0
 341.833333333 748 361.166666667 780.166666667 385.5 806.5 c 0
 409.833333333 832.833333333 438.5 852.833333333 471.5 866.5 c 0
 504.5 880.166666667 540 887 578 887 c 0
 619.333333333 887 657.166666667 880 691.5 866 c 0
 725.833333333 852 755.166666667 829.833333333 779.5 799.5 c 0
 803.833333333 769.166666667 822.833333333 730.333333333 836.5 683 c 0
 850.166666667 635.666666667 857 579 857 513 c 0
 857 388.333333333 831.666666667 292.333333333 781 225 c 0
 743.114295628 174.651892874 651 134.853867246 631 130.426933623 c 0
 611 126 591 130 585 96 c 0
 563 18 l 1
EndSplineSet
EndChar

StartChar: jy
Encoding: 60822 60822 54
Width: 1116
VWidth: 2000
GlyphClass: 2
Flags: W
HStem: -16 142<391.857 689.637> 0 21G<865.333 985> 993 20G<141 319.861 806 985>
VStem: 141 178.921<-506 98.0303 200.495 1013> 806 179<224.229 1013> 831 154<0.0812988 147>
AnchorPoint: "Top" 555 1331.1 basechar 0
AnchorPoint: "Bottom" 704 0 basechar 0
LayerCount: 2
Fore
SplineSet
817 147 m 1x74
 779.666666667 105 759.670247396 82.6666666667 757.010742188 80 c 0
 737.003580729 60 715.276041667 42.8333333333 691.828125 28.5 c 0
 668.609375 14.1666666667 644.252278646 3.16666666667 618.756835938 -4.5 c 0
 592.918945313 -12.1666666667 565.101888021 -16 535.305664062 -16 c 0
 489.768554687 -16 449.219075521 -6.83333333333 413.657226562 11.5 c 0
 376.552408854 30.5 347.213216146 56.5 325.639648438 89.5 c 0
 319.946289062 98.0302734375 l 2
 320 -506 l 1
 278 -506 l 0
 141 -506 l 1
 141 1013 l 1
 151 1013 l 1
 319.859375 1013 l 1
 319.920898438 367.586914062 l 1
 329.973632813 279.195638021 347.426757813 219.833333333 372.280273438 189.5 c 0
 406.760091146 147.166666667 459.831054687 126 531.493164062 126 c 0
 584.497721354 126 633.575846354 138.666666667 678.727539062 164 c 0
 725.575846354 190 768 224.333333333 806 267 c 1
 806 1013 l 1
 979 1013 l 0
 985 1013 l 1xb8
 985 0 l 1
 878 0 l 2
 852.666666667 0 837 12.3333333333 831 37 c 1
 817 147 l 1x74
EndSplineSet
EndChar

StartChar: ny
Encoding: 60823 60823 55
Width: 832
VWidth: 2000
GlyphClass: 2
Flags: HMW
HStem: -16 133<286.143 598.93> 873 140
AnchorPoint: "Top" 409 1330.1 basechar 0
AnchorPoint: "Bottom" 414 0 basechar 0
LayerCount: 2
Fore
SplineSet
546 873 m 1
 316.33203125 641 l 2
 150.77734375 473.666666667 68 356.166666667 68 288.5 c 3
 68 85.5 187.333333333 -16 426 -16 c 0
 554.666666667 -16 660.333333333 23.3333333333 743 102 c 1
 703 167 l 2
 693.666666667 181.666666667 682.666666667 189 670 189 c 0
 657.333333333 189 644.666666667 185.333333333 632 178 c 0
 619.333333333 170.666666667 603.833333333 162.5 585.5 153.5 c 0
 535.833333333 129.166666667 490.024739583 117 448.07421875 117 c 0
 406.024739583 117 373 120.833333333 349 128.5 c 0
 325 136.166666667 304.5 146.666666667 287.5 160 c 0
 250.5 189.333333333 234.666666667 228.639322917 240 277.91796875 c 0
 246.651041667 342.488932291 291.979817708 417.391276041 375.986328125 502.625 c 26
 743 875 l 2
 759 891 767 912.333333333 767 939 c 2
 767 1013 l 1
 54 1013 l 1
 54 873 l 1
 546 873 l 1
EndSplineSet
EndChar

StartChar: bahebu
Encoding: 60824 60824 56
Width: 0
VWidth: 0
GlyphClass: 4
Flags: W
HStem: -392 251<-94.9143 95.6174>
VStem: -124 250<-362.597 -171.383>
AnchorPoint: "Bottom" 0 0 mark 0
LayerCount: 2
Fore
SplineSet
-124 -267 m 4
 -124 -249.666666667 -120.833333333 -233.333333333 -114.5 -218 c 4
 -108.166666667 -202.666666667 -99.5 -189.333333333 -88.5 -178 c 4
 -77.5 -166.666666667 -64.3333333333 -157.666666667 -49 -151 c 4
 -33.6666666667 -144.333333333 -17.3333333333 -141 0 -141 c 260
 17.3333333333 -141 33.6666666667 -144.333333333 49 -151 c 4
 64.3333333333 -157.666666667 77.6666666667 -166.666666667 89 -178 c 4
 100.333333333 -189.333333333 109.333333333 -202.666666667 116 -218 c 4
 122.666666667 -233.333333333 126 -249.666666667 126 -267 c 4
 126 -285 122.666666667 -301.5 116 -316.5 c 4
 109.333333333 -331.5 100.333333333 -344.666666667 89 -356 c 4
 77.6666666667 -367.333333333 64.3333333333 -376.166666667 49 -382.5 c 4
 33.6666666667 -388.833333333 17.3333333333 -392 0 -392 c 260
 -17.3333333333 -392 -33.6666666667 -388.833333333 -49 -382.5 c 4
 -64.3333333333 -376.166666667 -77.5 -367.333333333 -88.5 -356 c 4
 -99.5 -344.666666667 -108.166666667 -331.5 -114.5 -316.5 c 4
 -120.833333333 -301.5 -124 -285 -124 -267 c 4
EndSplineSet
EndChar

StartChar: smajibu
Encoding: 60825 60825 57
Width: 844
VWidth: 2000
GlyphClass: 2
Flags: W
HStem: 453 151<141 694>
VStem: 141 553<453 604>
LayerCount: 2
Fore
SplineSet
141 604 m 1
 694 604 l 1
 694 453 l 1
 141 453 l 1
 141 604 l 1
EndSplineSet
Substitution2: "Single Substitution lookup 24 subtable" smajibu.fina
Substitution2: "Single Substitution lookup 23 subtable" smajibu.fina
Substitution2: "Single Substitution lookup 22 subtable" smajibu.fina
Substitution2: "Single Substitution lookup 20 subtable" smajibu.medi
Substitution2: "Single Substitution lookup 19 subtable" smajibu.medi
Substitution2: "Single Substitution lookup 18 subtable" smajibu.medi
Substitution2: "Single Substitution lookup 17 subtable" smajibu.medi
Substitution2: "Single Substitution lookup 16 subtable" smajibu.medi
Substitution2: "Single Substitution lookup 15 subtable" smajibu.medi
Substitution2: "Single Substitution lookup 13 subtable" smajibu.init
Substitution2: "Single Substitution lookup 12 subtable" smajibu.init
Substitution2: "Single Substitution lookup 11 subtable" smajibu.init
EndChar

StartChar: tcenabu
Encoding: 60827 60827 59
Width: 0
VWidth: 2000
GlyphClass: 4
Flags: W
HStem: -343 151<-537 537>
AnchorPoint: "Bottom" 0 0 mark 0
LayerCount: 2
Fore
SplineSet
-537 -192 m 1
 537 -192 l 1
 537 -343 l 1
 -537 -343 l 1
 -537 -192 l 1
EndSplineSet
EndChar

StartChar: abu
Encoding: 60832 60832 64
Width: 0
VWidth: 2000
GlyphClass: 4
Flags: W
HStem: 1177 475<-46.2812 47.244>
VStem: -67 135<1261.75 1652>
AnchorPoint: "Top" 0 1330 mark 0
LayerCount: 2
Fore
SplineSet
68 1652 m 1
 68 1399 l 1
 52 1244 l 2
 50 1224.66666667 43.8333333333 1208.16666667 33.5 1194.5 c 0
 26.5689655172 1182.83333333 15.4022988506 1177 0 1177 c 0
 -13.6626506024 1177 -24.1626506024 1182.83333333 -31.5 1194.5 c 0
 -42.4264322917 1207.41341146 -48.9264322917 1223.91341146 -51 1244 c 2
 -67 1399 l 1
 -67 1652 l 1
 68 1652 l 1
EndSplineSet
MultipleSubs2: "Multiple Substitution lookup 26 subtable" denpabu abu
EndChar

StartChar: ebu
Encoding: 60833 60833 65
Width: 0
VWidth: 2000
GlyphClass: 4
Flags: W
HStem: 1265.1 121<-247 247>
VStem: -247 494<1265.1 1386.1>
AnchorPoint: "Top" 1 1330 mark 0
LayerCount: 2
Fore
SplineSet
-247 1386.09960938 m 1
 247 1386.09960938 l 1
 247 1265.09960938 l 1
 -247 1265.09960938 l 1
 -247 1386.09960938 l 1
EndSplineSet
MultipleSubs2: "Multiple Substitution lookup 27 subtable" denpabu ebu
EndChar

StartChar: ibu
Encoding: 60834 60834 66
Width: 0
VWidth: 2000
GlyphClass: 4
Flags: W
HStem: 1206 251<-94.9143 95.6174>
VStem: -124 250<1235.4 1426.62>
AnchorPoint: "Top" 1 1330 mark 0
LayerCount: 2
Fore
SplineSet
-124 1331 m 0
 -124 1348.33333333 -120.833333333 1364.66666667 -114.5 1380 c 0
 -108.166666667 1395.33333333 -99.5 1408.66666667 -88.5 1420 c 0
 -77.5 1431.33333333 -64.3333333333 1440.33333333 -49 1447 c 0
 -33.6666666667 1453.66666667 -17.3333333333 1457 0 1457 c 256
 17.3333333333 1457 33.6666666667 1453.66666667 49 1447 c 0
 64.3333333333 1440.33333333 77.6666666667 1431.33333333 89 1420 c 0
 100.333333333 1408.66666667 109.333333333 1395.33333333 116 1380 c 0
 122.666666667 1364.66666667 126 1348.33333333 126 1331 c 0
 126 1313 122.666666667 1296.5 116 1281.5 c 0
 109.333333333 1266.5 100.333333333 1253.33333333 89 1242 c 0
 77.6666666667 1230.66666667 64.3333333333 1221.83333333 49 1215.5 c 0
 33.6666666667 1209.16666667 17.3333333333 1206 0 1206 c 256
 -17.3333333333 1206 -33.6666666667 1209.16666667 -49 1215.5 c 0
 -64.3333333333 1221.83333333 -77.5 1230.66666667 -88.5 1242 c 0
 -99.5 1253.33333333 -108.166666667 1266.5 -114.5 1281.5 c 0
 -120.833333333 1296.5 -124 1313 -124 1331 c 0
EndSplineSet
MultipleSubs2: "Multiple Substitution lookup 28 subtable" denpabu ibu
Substitution2: "Single Substitution lookup 6 subtable" iy
Substitution2: "Single Substitution lookup 4 subtable" iy
EndChar

StartChar: obu
Encoding: 60835 60835 67
Width: 0
VWidth: 2000
GlyphClass: 4
Flags: W
HStem: 1201 117<0.528193 125.729> 1303 117<-149.669 -31.3516>
VStem: -257.38 99.9199<1205 1297.99> 134.62 97.7598<1324 1414>
AnchorPoint: "Top" 1 1330 mark 0
LayerCount: 2
Fore
SplineSet
59.900390625 1318 m 0xb0
 108.238696172 1318 133.145271693 1350 134.620117188 1414 c 1
 232.379882812 1414 l 1
 232.059308514 1315.33333333 200.312563722 1249.5 137.139648438 1216.5 c 0
 115.591663475 1206.16666667 92.1248666006 1201 66.7392578125 1201 c 0xb0
 5.00966378886 1201 -25.7362513522 1259.56363257 -60.33984375 1288.5 c 0
 -72.11328125 1298.16666667 -83.3932291667 1303 -94.1796875 1303 c 0
 -135.210552309 1303 -156.303976788 1270.33333333 -157.459960938 1205 c 1
 -257.379882812 1205 l 1
 -257.093754411 1299.35421888 -228.080408057 1362.52088554 -170.33984375 1394.5 c 4
 -148.605223368 1411.49999999 -125.138426493 1420 -99.939453125 1420 c 0x70
 -61.003354222 1420 -31.8155001826 1393.51123543 -9.939453125 1374 c 0
 11.907740877 1348.42558194 24.0275325437 1334.59224861 26.419921875 1332.5 c 0
 37.4733072917 1322.83333333 48.6334635417 1318 59.900390625 1318 c 0xb0
EndSplineSet
MultipleSubs2: "Multiple Substitution lookup 29 subtable" denpabu obu
EndChar

StartChar: ubu
Encoding: 60836 60836 68
Width: 0
VWidth: 2000
GlyphClass: 4
Flags: W
HStem: 1190.9 92.7998<-114.887 114.629>
VStem: -239.2 100.8<1308.64 1426.1> 138.4 100.8<1309.24 1426.1>
AnchorPoint: "Top" 0 1330 mark 0
LayerCount: 2
Fore
SplineSet
0 1283.70019531 m 256
 108.73001004 1283.70019531 138.400390625 1333.3750545 138.400390625 1426.09960938 c 1
 239.200195312 1426.09960938 l 1
 239.200195312 1273.9844996 167.682466916 1190.90039062 0 1190.90039062 c 0
 -168.880124997 1190.90039062 -239.200195312 1272.60799471 -239.200195312 1426.09960938 c 1
 -138.400390625 1426.09960938 l 1
 -138.400390625 1333.38509607 -108.735356807 1283.70019531 0 1283.70019531 c 256
EndSplineSet
MultipleSubs2: "Multiple Substitution lookup 30 subtable" denpabu ubu
Substitution2: "Single Substitution lookup 7 subtable" uy
Substitution2: "Single Substitution lookup 5 subtable" uy
EndChar

StartChar: ybu
Encoding: 60837 60837 69
Width: 0
VWidth: 2000
GlyphClass: 4
Flags: W
HStem: 1146.1 84<-78.9133 77.5095> 1431.1 86<-78.9133 77.5095>
VStem: -201 100<1251.85 1409.36> 100 100<1251.85 1409.36>
AnchorPoint: "Top" 0 1330 mark 0
LayerCount: 2
Fore
SplineSet
-201 1330.09960938 m 0
 -201 1358.09960938 -195.666666667 1383.43294271 -185 1406.09960938 c 0
 -174.333333333 1428.76627605 -159.833333333 1448.43294271 -141.5 1465.09960938 c 0
 -123.166666667 1481.76627605 -102 1494.59960938 -78 1503.59960938 c 0
 -54 1512.59960938 -28.6666666667 1517.09960938 -2 1517.09960938 c 0
 25.3333333333 1517.09960938 51.1666666667 1512.59960938 75.5 1503.59960938 c 0
 99.8333333333 1494.59960938 121.333333333 1481.76627605 140 1465.09960938 c 0
 158.666666667 1448.43294271 173.333333333 1428.76627605 184 1406.09960938 c 0
 194.666666667 1383.43294271 200 1358.09960938 200 1330.09960938 c 0
 200 1302.76627605 194.666666667 1277.76627605 184 1255.09960938 c 0
 173.333333333 1232.43294271 158.666666667 1213.09960938 140 1197.09960938 c 0
 121.333333333 1181.09960938 99.8333333333 1168.59960938 75.5 1159.59960938 c 0
 51.1666666667 1150.59960938 25.3333333333 1146.09960938 -2 1146.09960938 c 0
 -28.6666666667 1146.09960938 -54 1150.59960938 -78 1159.59960938 c 0
 -102 1168.59960938 -123.166666667 1181.09960938 -141.5 1197.09960938 c 0
 -159.833333333 1213.09960938 -174.333333333 1232.43294271 -185 1255.09960938 c 0
 -195.666666667 1277.76627605 -201 1302.76627605 -201 1330.09960938 c 0
-101 1330.09960938 m 0
 -101 1300.76627605 -92 1276.76627605 -74 1258.09960938 c 0
 -56 1239.43294271 -31.3333333333 1230.09960938 -0 1230.09960938 c 0
 30 1230.09960938 54.1666666667 1239.43294271 72.5 1258.09960938 c 0
 90.8333333333 1276.76627605 100 1300.76627605 100 1330.09960938 c 0
 100 1360.09960938 90.8333333333 1384.43294271 72.5 1403.09960938 c 0
 54.1666666667 1421.76627605 30 1431.09960938 -0 1431.09960938 c 0
 -31.3333333333 1431.09960938 -56 1421.76627605 -74 1403.09960938 c 0
 -92 1384.43294271 -101 1360.09960938 -101 1330.09960938 c 0
EndSplineSet
MultipleSubs2: "Multiple Substitution lookup 31 subtable" denpabu ybu
EndChar

StartChar: aibu
Encoding: 60838 60838 70
Width: 0
VWidth: 0
GlyphClass: 4
Flags: W
HStem: 1151.62 79.9199<-86 8.37221> 1493.62 77.7598<32.889 123>
VStem: -90 117<1379.45 1487.17> 12 117<1238.11 1349.28>
AnchorPoint: "Top" 0 1330 mark 0
LayerCount: 2
Fore
SplineSet
27 1438.90039062 m 0xe0
 27 1427.63378906 31.8330078125 1416.47363281 41.5 1405.41992188 c 0
 43.591796875 1403.02734375 57.42578125 1390.90820312 83 1369.06054688 c 0
 94.3330078125 1356.35351562 104.833007812 1342.55371094 114.5 1327.66015625 c 0
 124.166992188 1313.21972656 129 1297.02050781 129 1279.06054688 c 0
 129 1261.02050781 123.833007812 1244.21972656 113.5 1228.66015625 c 0
 79.8330078125 1177.55371094 13.3330078125 1151.87304688 -86 1151.62011719 c 1
 -86 1231.54003906 l 1
 -20.6669921875 1232.51367188 12 1250.2734375 12 1284.8203125 c 0xd0
 12 1295.60644531 7.1669921875 1306.88671875 -2.5 1318.66015625 c 0
 -12.1669921875 1330.21972656 -24.3330078125 1342.45996094 -39 1355.37988281 c 0
 -53.6669921875 1368.45996094 -65.8330078125 1382.25976562 -75.5 1396.78027344 c 0
 -85.1669921875 1411.59375 -90 1427.91308594 -90 1445.73925781 c 0
 -90 1463.91308594 -84.8330078125 1480.71289062 -74.5 1496.13964844 c 0
 -41.5 1546.046875 24.3330078125 1571.12695312 123 1571.37988281 c 1
 123 1493.62011719 l 1
 59 1492.54003906 27 1474.29980469 27 1438.90039062 c 0xe0
EndSplineSet
MultipleSubs2: "Multiple Substitution lookup 32 subtable" denpabu aibu
Ligature2: "zlmVV subtable" abu ibu
LCarets2: 1 0
EndChar

StartChar: eibu
Encoding: 60839 60839 71
Width: 0
VWidth: 0
GlyphClass: 4
Flags: W
HStem: 1313.4 92.7998<-100.563 100.775>
VStem: -219.2 100.8<1191 1295.46> 118.4 100.8<1191 1295.46>
AnchorPoint: "Top" 0 1330 mark 0
LayerCount: 2
Fore
SplineSet
-0 1406.19921875 m 4
 41.06640625 1406.19921875 75.466796875 1400.46679688 103.200195312 1389 c 4
 130.93359375 1377.53320312 153.466796875 1362.06640625 170.799804688 1342.59960938 c 4
 188.1328125 1323.1328125 200.533203125 1300.33300781 208 1274.19921875 c 4
 215.466796875 1248.06640625 219.200195312 1220.33398438 219.200195312 1191 c 5
 118.400390625 1191 l 5
 118.400390625 1208.59960938 116.533203125 1225 112.799804688 1240.19921875 c 4
 109.06640625 1255.40039062 102.666992188 1268.33398438 93.599609375 1279 c 4
 84.533203125 1289.66699219 72.400390625 1298.06640625 57.2001953125 1304.19921875 c 4
 42 1310.33300781 22.93359375 1313.39941406 -0 1313.39941406 c 260
 -22.93359375 1313.39941406 -42 1310.33300781 -57.2001953125 1304.19921875 c 4
 -72.400390625 1298.06640625 -84.533203125 1289.66699219 -93.599609375 1279 c 4
 -102.666992188 1268.33398438 -109.06640625 1255.40039062 -112.799804688 1240.19921875 c 4
 -116.533203125 1225 -118.400390625 1208.59960938 -118.400390625 1191 c 5
 -219.200195312 1191 l 5
 -219.200195312 1220.33398438 -215.466796875 1248.06640625 -208 1274.19921875 c 4
 -200.533203125 1300.33300781 -188.1328125 1323.1328125 -170.799804688 1342.59960938 c 4
 -153.466796875 1362.06640625 -130.799804688 1377.53320312 -102.799804688 1389 c 4
 -74.7998046875 1400.46679688 -40.533203125 1406.19921875 -0 1406.19921875 c 4
EndSplineSet
MultipleSubs2: "Multiple Substitution lookup 33 subtable" denpabu eibu
Ligature2: "zlmVV subtable" ebu ibu
LCarets2: 1 0
EndChar

StartChar: oibu
Encoding: 60840 60840 72
Width: 0
VWidth: 2000
GlyphClass: 4
Flags: HMW
HStem: 1170 120
VStem: -237.669 99.9199<1174 1256.14> 124.331 77.7598<1288.13 1383>
AnchorPoint: "Top" 0 1330 mark 0
LayerCount: 2
Fore
SplineSet
-99 1342 m 1
 -35.5573548525 1402.42788355 12.2798585103 1302.56941386 69.611328125 1287 c 0
 109.22970141 1276.24090287 122.955933241 1337.5433075 124.331054688 1383 c 1
 202.090820312 1383 l 1
 200.082189561 1296.45444864 178.977140596 1220.11258208 126.5 1185.5 c 0
 110.833333333 1175.16666667 93.5501302083 1170 74.650390625 1170 c 0
 36.7561561635 1170 7.41032084493 1196.89869465 -14.5 1216 c 0
 -32.1476443523 1231.38512584 -58.1556765832 1262 -84.46875 1262 c 0
 -119.489583333 1262 -137.249674479 1232.66666667 -137.749023438 1174 c 1
 -237.668945312 1174 l 1
 -240.064662556 1302.2164456 -145.610634896 1469.59747811 -64 1576 c 1
 14 1518 l 1
 -29.1565144636 1459.33333333 -73.1221374046 1386.68166311 -99 1342 c 1
EndSplineSet
MultipleSubs2: "Multiple Substitution lookup 34 subtable" denpabu oibu
Ligature2: "zlmVV subtable" obu ibu
LCarets2: 1 0
EndChar

StartChar: aubu
Encoding: 60841 60841 73
Width: 0
VWidth: 2000
GlyphClass: 4
Flags: W
HStem: 1316 222<-80.5419 18.7666>
VStem: -112 227<1349.52 1496.74>
AnchorPoint: "Top" 1 1332 mark 0
LayerCount: 2
Fore
SplineSet
-72 1124 m 2
 -78.6666666667 1130 -82 1137.66666667 -82 1147 c 0
 -82 1150.33333333 -81 1154 -79 1158 c 0
 -77 1162 -74.3333333333 1166 -71 1170 c 0
 -65.6666666667 1176 -58.8333333333 1183.66666667 -50.5 1193 c 0
 -42.1666666667 1202.33333333 -33.6666666667 1213.33333333 -25 1226 c 0
 -16.3333333333 1238.66666667 -8 1252.66666667 0 1268 c 0
 8 1283.33333333 14.3333333333 1300 19 1318 c 1
 15.6666666667 1317.33333333 12.3333333333 1316.83333333 9 1316.5 c 0
 5.66666666667 1316.16666667 2 1316 -2 1316 c 0
 -34.6666666667 1316 -61.1666666667 1326.83333333 -81.5 1348.5 c 0
 -101.833333333 1370.16666667 -112 1397.66666667 -112 1431 c 0
 -112 1461 -101.833333333 1486.33333333 -81.5 1507 c 0
 -61.1666666667 1527.66666667 -34 1538 0 1538 c 0
 38 1538 66.6666666667 1524.66666667 86 1498 c 0
 105.333333333 1471.33333333 115 1436.66666667 115 1394 c 0
 115 1342 100.833333333 1291.16666667 72.5 1241.5 c 0
 44.1666666667 1191.83333333 4.33333333333 1145 -47 1101 c 1
 -72 1124 l 2
EndSplineSet
MultipleSubs2: "Multiple Substitution lookup 35 subtable" denpabu aubu
Ligature2: "zlmVV subtable" abu ubu
LCarets2: 1 0
EndChar

StartChar: iy
Encoding: 60842 60842 74
Width: 1032
VWidth: 0
GlyphClass: 2
Flags: W
HStem: 0 21G<16 161.333 849.667 1002> 993 20G<420.846 597.154>
AnchorPoint: "Top" 513 1331.1 basechar 0
AnchorPoint: "Bottom" 493 0 basechar 0
LayerCount: 2
Fore
SplineSet
16 0 m 1
 429 1013 l 1
 589 1013 l 1
 1002 0 l 1
 857 0 l 2
 842.333007812 0 830.333007812 3.6669921875 821 11 c 0
 812.626953125 17.4404296875 806.293945312 26.107421875 802 37 c 2
 545 689 l 2
 540.333007812 700.333007812 533.333007812 724.333007812 524 761 c 0
 518 784.333007812 512.333007812 807.666992188 507 831 c 1
 501.666992188 807.666992188 496 784.333007812 490 761 c 0
 482.036132812 729.809570312 474.703125 705.809570312 468 689 c 2
 208 37 l 2
 204 27 197.333007812 18.1669921875 188 10.5 c 0
 178.666992188 3.5 167.666992188 0 155 0 c 2
 16 0 l 1
EndSplineSet
EndChar

StartChar: uy
Encoding: 60843 60843 75
Width: 1032
VWidth: 2000
GlyphClass: 2
Flags: W
HStem: 0 21G<427.846 604.154> 993 20G<23 175.333 863.667 1009>
AnchorPoint: "Top" 519 1331.1 basechar 0
AnchorPoint: "LigaBottom" 516 0 baselig 0
AnchorPoint: "Bottom" 516 0 basechar 0
LayerCount: 2
Fore
SplineSet
1009 1013 m 1
 596 0 l 1
 436 0 l 1
 23 1013 l 1
 168 1013 l 2
 182.666666667 1013 194.666666667 1009.33333333 204 1002 c 0
 212.373179817 995.559092449 218.706513151 986.892425782 223 976 c 2
 480 324 l 2
 484.666666667 312.666666667 491.666666667 288.666666667 501 252 c 0
 507 228.666666667 512.666666667 205.333333333 518 182 c 1
 523.333333333 205.333333333 529 228.666666667 535 252 c 0
 542.963603276 283.190779497 550.296936609 307.190779497 557 324 c 2
 817 976 l 2
 821 986 827.666666667 994.833333333 837 1002.5 c 0
 846.333333333 1009.5 857.333333333 1013 870 1013 c 2
 1009 1013 l 1
EndSplineSet
EndChar

StartChar: seplimeabu
Encoding: 60848 60848 80
Width: 1111
VWidth: 2000
GlyphClass: 3
Flags: W
AnchorPoint: "Bottom" 617 0 basechar 0
LayerCount: 2
Fore
SplineSet
985 869 m 1
 985 1013 l 1
 141 1013 l 1
 141 0 l 1
 313 0 l 1
 313 869 l 1
 985 869 l 1
EndSplineSet
Ligature2: "zlmSF subtable" slakabu seplimeabu
EndChar

StartChar: seplimeebu
Encoding: 60849 60849 81
Width: 1111
VWidth: 2000
GlyphClass: 3
Flags: W
AnchorPoint: "Bottom" 622 0 basechar 0
LayerCount: 2
Fore
SplineSet
985 455 m 1
 985 599 l 1
 313 599 l 0
 313 1013 l 0
 141 1013 l 1
 141 0 l 1
 313 0 l 1
 313 455 l 1
 985 455 l 1
EndSplineSet
Ligature2: "zlmSF subtable" slakabu seplimeebu
EndChar

StartChar: seplimeibu
Encoding: 60850 60850 82
Width: 1111
VWidth: 2000
GlyphClass: 3
Flags: W
HStem: 0 21G<141 313 813 985> 869 144<313 813>
VStem: 141 172<0 869> 813 172<0 869>
AnchorPoint: "Bottom" 576 0 basechar 0
LayerCount: 2
Fore
SplineSet
313 869 m 1
 313 0 l 1
 141 0 l 1
 141 869 l 1
 141 1013 l 1
 985 1013 l 1
 985 869 l 1
 985 0 l 1
 813 0 l 1
 813 869 l 1
 313 869 l 1
EndSplineSet
Ligature2: "zlmSF subtable" slakabu seplimeibu
EndChar

StartChar: seplimeobu
Encoding: 60851 60851 83
Width: 1111
VWidth: 2000
GlyphClass: 3
Flags: W
AnchorPoint: "Bottom" 563 0 basechar 0
LayerCount: 2
Fore
SplineSet
141 144 m 1
 141 0 l 1
 985 0 l 1
 985 1013 l 1
 813 1013 l 1
 813 144 l 1
 141 144 l 1
EndSplineSet
Ligature2: "zlmSF subtable" slakabu seplimeobu
EndChar

StartChar: seplimeubu
Encoding: 60852 60852 84
Width: 1111
VWidth: 2000
GlyphClass: 3
Flags: W
AnchorPoint: "Bottom" 578 0 basechar 0
LayerCount: 2
Fore
SplineSet
313 144 m 1
 313 1013 l 1
 141 1013 l 1
 141 144 l 1
 141 0 l 1
 985 0 l 1
 985 144 l 1
 985 1013 l 1
 813 1013 l 1
 813 144 l 1
 313 144 l 1
EndSplineSet
Ligature2: "zlmSF subtable" slakabu seplimeubu
EndChar

StartChar: seplimeybu
Encoding: 60853 60853 85
Width: 1111
VWidth: 2000
GlyphClass: 3
Flags: W
AnchorPoint: "Bottom" 560 0 basechar 0
LayerCount: 2
Fore
SplineSet
985 455 m 1
 985 599 l 1
 646 599 l 0
 646 1013 l 0
 474 1013 l 1
 474 599 l 0
 141 599 l 0
 141 453 l 0
 474 453 l 0
 474 0 l 1
 646 0 l 1
 646 455 l 1
 985 455 l 1
EndSplineSet
Ligature2: "zlmSF subtable" slakabu seplimeybu
EndChar

StartChar: seplimeaibu
Encoding: 60854 60854 86
Width: 1111
VWidth: 2000
GlyphClass: 3
Flags: W
HStem: 0 144<313 985> 869 144<313 985>
VStem: 141 172<144 869>
AnchorPoint: "LigaBottom" 581 0 basechar 0
LayerCount: 2
Fore
SplineSet
985 144 m 1
 985 0 l 1
 313 0 l 1
 141 0 l 1
 141 1013 l 1
 313 1013 l 1
 985 1013 l 1
 985 869 l 1
 313 869 l 1
 313 144 l 1
 985 144 l 1
EndSplineSet
Ligature2: "zlmSFF subtable" slakabu seplimeaibu
Ligature2: "zlmFF subtable" seplimeabu seplimeibu
EndChar

StartChar: seplimeeibu
Encoding: 60855 60855 87
Width: 866
VWidth: 2000
GlyphClass: 3
Flags: W
HStem: -16 128<244.673 562.796> 18.5 183.5<126.713 240.363> 896 133<313.824 628.795>
VStem: 94 169<663.165 845.38> 621 167<169.046 370.076>
AnchorPoint: "Bottom" 456 0 basechar 0
LayerCount: 2
Fore
SplineSet
731 846 m 2xb8
 723 831.333333333 710.666666667 824 694 824 c 0
 684 824 672.666666667 827.666666667 660 835 c 0
 647.333333333 842.333333333 631.833333333 850.5 613.5 859.5 c 0
 595.166666667 868.5 573.333333333 876.833333333 548 884.5 c 0
 522.666666667 892.166666667 492.666666667 896 458 896 c 0
 428 896 401 892.166666667 377 884.5 c 0
 353 876.833333333 332.5 866.333333333 315.5 853 c 0
 298.5 839.666666667 285.5 824.166666667 276.5 806.5 c 0
 267.5 788.833333333 263 769.666666667 263 749 c 0
 263 723 270.5 701.333333333 285.5 684 c 0
 300.5 666.666666667 320.333333333 651.666666667 345 639 c 0
 369.666666667 626.333333333 397.666666667 615.166666667 429 605.5 c 0
 460.333333333 595.833333333 492.5 585.5 525.5 574.5 c 0
 558.5 563.5 590.666666667 551.333333333 622 538 c 0
 653.333333333 524.666666667 681.333333333 508 706 488 c 0
 730.666666667 468 750.5 443.5 765.5 414.5 c 0
 780.5 385.5 788 350.666666667 788 310 c 0
 788 263.333333333 779.666666667 220.166666667 763 180.5 c 0
 746.333333333 140.833333333 721.666666667 106.5 689 77.5 c 0
 656.333333333 48.5 616.333333333 25.6666666667 569 9 c 0
 521.666666667 -7.66666666667 467 -16 405 -16 c 0xb8
 334.333333333 -16 270.333333333 -4.5 213 18.5 c 0
 155.666666667 41.5 107 71 67 107 c 1
 109 175 l 2
 114.333333333 183.666666667 120.666666667 190.333333333 128 195 c 0
 135.333333333 199.666666667 144.666666667 202 156 202 c 0x78
 168 202 180.666666667 197.333333333 194 188 c 0
 207.333333333 178.666666667 223.5 168.333333333 242.5 157 c 0
 261.5 145.666666667 284.666666667 135.333333333 312 126 c 0
 339.333333333 116.666666667 373.333333333 112 414 112 c 0
 448.666666667 112 479 116.5 505 125.5 c 0
 531 134.5 552.666666667 146.666666667 570 162 c 0
 587.333333333 177.333333333 600.166666667 195 608.5 215 c 0
 616.833333333 235 621 256.333333333 621 279 c 0
 621 307 613.5 330.166666667 598.5 348.5 c 0
 583.5 366.833333333 563.666666667 382.5 539 395.5 c 0
 514.333333333 408.5 486.166666667 419.833333333 454.5 429.5 c 0
 422.833333333 439.166666667 390.5 449.333333333 357.5 460 c 0
 324.5 470.666666667 292.166666667 482.833333333 260.5 496.5 c 0
 228.833333333 510.166666667 200.666666667 527.333333333 176 548 c 0
 151.333333333 568.666666667 131.5 594.166666667 116.5 624.5 c 0
 101.5 654.833333333 94 691.666666667 94 735 c 0
 94 773.666666667 102 810.833333333 118 846.5 c 0
 134 882.166666667 157.333333333 913.5 188 940.5 c 0
 218.666666667 967.5 256.333333333 989 301 1005 c 0
 345.666666667 1021 396.666666667 1029 454 1029 c 0
 520.666666667 1029 580.5 1018.5 633.5 997.5 c 0
 686.5 976.5 732.333333333 947.666666667 771 911 c 1
 731 846 l 2xb8
EndSplineSet
Ligature2: "zlmSFF subtable" slakabu seplimeeibu
Ligature2: "zlmFF subtable" seplimeebu seplimeibu
EndChar

StartChar: seplimeoibu
Encoding: 60856 60856 88
Width: 1111
VWidth: 2000
GlyphClass: 3
Flags: W
AnchorPoint: "Bottom" 572 0 basechar 0
LayerCount: 2
Fore
SplineSet
141 144 m 1
 141 0 l 1
 813 0 l 1
 985 0 l 1
 985 1013 l 1
 813 1013 l 1
 141 1013 l 1
 141 869 l 1
 813 869 l 1
 813 144 l 1
 141 144 l 1
EndSplineSet
Ligature2: "zlmSFF subtable" slakabu seplimeoibu
Ligature2: "zlmFF subtable" seplimeobu seplimeibu
EndChar

StartChar: seplimeaubu
Encoding: 60857 60857 89
Width: 996
VWidth: 2000
GlyphClass: 3
Flags: W
HStem: 0 21G<23 188.667 794.667 973> 993 20G<37 215.333 790 959>
AnchorPoint: "Bottom" 494 0 basechar 0
LayerCount: 2
Fore
SplineSet
973 0 m 1
 802 0 l 2
 787.333333333 0 775.833333333 3.83333333333 767.5 11.5 c 0
 759.166666667 19.1666666667 752.333333333 27.6666666667 747 37 c 2
 492 434 l 1
 489.333333333 424.666666667 486.5 415.5 483.5 406.5 c 0
 480.5 397.5 476.333333333 389.333333333 471 382 c 2
 235 37 l 2
 228.333333333 27.6666666667 221.166666667 19.1666666667 213.5 11.5 c 0
 205.833333333 3.83333333333 195.333333333 0 182 0 c 2
 23 0 l 1
 378 520 l 1
 37 1013 l 1
 208 1013 l 2
 222.666666667 1013 233.333333333 1010.66666667 240 1006 c 0
 246.666666667 1001.33333333 252.666666667 994.666666667 258 986 c 2
 507 606 l 1
 512.333333333 625.333333333 520.666666667 644 532 662 c 2
 750 982 l 2
 756 991.333333333 762.5 998.833333333 769.5 1004.5 c 0
 776.5 1010.16666667 785 1013 795 1013 c 2
 959 1013 l 1
 618 529 l 1
 973 0 l 1
EndSplineSet
Ligature2: "zlmSFF subtable" slakabu seplimeaubu
Ligature2: "zlmFF subtable" seplimeabu seplimeubu
EndChar

StartChar: bahebu_bahebu
Encoding: 60874 -1 96
Width: 0
VWidth: 0
GlyphClass: 4
Flags: W
HStem: -382.5 231.5<-282.431 -76.6006 75.5693 281.399>
VStem: -304 250<-362.597 -171.383> 54 250<-362.597 -171.383>
AnchorPoint: "Bottom" 0 0 mark 0
LayerCount: 2
Fore
SplineSet
-304 -267 m 4
 -304 -249.666666667 -300.833333333 -233.333333333 -294.5 -218 c 4
 -288.166666667 -202.666666667 -279.5 -189.333333333 -268.5 -178 c 4
 -257.5 -166.666666667 -244.333333333 -157.666666667 -229 -151 c 4
 -213.666666667 -144.333333333 -197.333333333 -141 -180 -141 c 260
 -162.666666667 -141 -146.333333333 -144.333333333 -131 -151 c 4
 -115.666666667 -157.666666667 -102.333333333 -166.666666667 -91 -178 c 4
 -79.6666666667 -189.333333333 -70.6666666667 -202.666666667 -64 -218 c 4
 -57.3333333333 -233.333333333 -54 -249.666666667 -54 -267 c 4
 -54 -285 -57.3333333333 -301.5 -64 -316.5 c 4
 -70.6666666667 -331.5 -79.6666666667 -344.666666667 -91 -356 c 4
 -102.333333333 -367.333333333 -115.666666667 -376.166666667 -131 -382.5 c 4
 -146.333333333 -388.833333333 -162.666666667 -392 -180 -392 c 260
 -197.333333333 -392 -213.666666667 -388.833333333 -229 -382.5 c 4
 -244.333333333 -376.166666667 -257.5 -367.333333333 -268.5 -356 c 4
 -279.5 -344.666666667 -288.166666667 -331.5 -294.5 -316.5 c 4
 -300.833333333 -301.5 -304 -285 -304 -267 c 4
54 -267 m 4
 54 -249.666666667 57.1666666667 -233.333333333 63.5 -218 c 4
 69.8333333333 -202.666666667 78.5 -189.333333333 89.5 -178 c 4
 100.5 -166.666666667 113.666666667 -157.666666667 129 -151 c 4
 144.333333333 -144.333333333 160.666666667 -141 178 -141 c 260
 195.333333333 -141 211.666666667 -144.333333333 227 -151 c 4
 242.333333333 -157.666666667 255.666666667 -166.666666667 267 -178 c 4
 278.333333333 -189.333333333 287.333333333 -202.666666667 294 -218 c 4
 300.666666667 -233.333333333 304 -249.666666667 304 -267 c 4
 304 -285 300.666666667 -301.5 294 -316.5 c 4
 287.333333333 -331.5 278.333333333 -344.666666667 267 -356 c 4
 255.666666667 -367.333333333 242.333333333 -376.166666667 227 -382.5 c 4
 211.666666667 -388.833333333 195.333333333 -392 178 -392 c 260
 160.666666667 -392 144.333333333 -388.833333333 129 -382.5 c 4
 113.666666667 -376.166666667 100.5 -367.333333333 89.5 -356 c 4
 78.5 -344.666666667 69.8333333333 -331.5 63.5 -316.5 c 4
 57.1666666667 -301.5 54 -285 54 -267 c 4
EndSplineSet
Ligature2: "zlmBahebu subtable" bahebu bahebu
EndChar

StartChar: bahebu_bahebu_bahebu
Encoding: 60875 -1 97
Width: 0
VWidth: 0
GlyphClass: 4
Flags: W
HStem: -633 251<-94.9143 95.6174> -372.5 231.5<-282.431 -76.6006 75.5693 281.399>
VStem: -304 250<-352.597 -161.383> -124 250<-603.597 -412.383> 54 250<-352.597 -161.383>
AnchorPoint: "Bottom" 0 0 mark 0
LayerCount: 2
Fore
SplineSet
-124 -508 m 0xd0
 -124 -490.666666667 -120.833333333 -474.333333333 -114.5 -459 c 0
 -108.166666667 -443.666666667 -99.5 -430.333333333 -88.5 -419 c 0
 -77.5 -407.666666667 -64.3333333333 -398.666666667 -49 -392 c 0
 -33.6666666667 -385.333333333 -17.3333333333 -382 0 -382 c 256
 17.3333333333 -382 33.6666666667 -385.333333333 49 -392 c 0
 64.3333333333 -398.666666667 77.6666666667 -407.666666667 89 -419 c 0
 100.333333333 -430.333333333 109.333333333 -443.666666667 116 -459 c 0
 122.666666667 -474.333333333 126 -490.666666667 126 -508 c 0
 126 -526 122.666666667 -542.5 116 -557.5 c 0
 109.333333333 -572.5 100.333333333 -585.666666667 89 -597 c 0
 77.6666666667 -608.333333333 64.3333333333 -617.166666667 49 -623.5 c 0
 33.6666666667 -629.833333333 17.3333333333 -633 0 -633 c 256
 -17.3333333333 -633 -33.6666666667 -629.833333333 -49 -623.5 c 0
 -64.3333333333 -617.166666667 -77.5 -608.333333333 -88.5 -597 c 0
 -99.5 -585.666666667 -108.166666667 -572.5 -114.5 -557.5 c 0
 -120.833333333 -542.5 -124 -526 -124 -508 c 0xd0
-304 -257 m 0xe0
 -304 -239.666666667 -300.833333333 -223.333333333 -294.5 -208 c 0
 -288.166666667 -192.666666667 -279.5 -179.333333333 -268.5 -168 c 0
 -257.5 -156.666666667 -244.333333333 -147.666666667 -229 -141 c 0
 -213.666666667 -134.333333333 -197.333333333 -131 -180 -131 c 256
 -162.666666667 -131 -146.333333333 -134.333333333 -131 -141 c 0
 -115.666666667 -147.666666667 -102.333333333 -156.666666667 -91 -168 c 0
 -79.6666666667 -179.333333333 -70.6666666667 -192.666666667 -64 -208 c 0
 -57.3333333333 -223.333333333 -54 -239.666666667 -54 -257 c 0
 -54 -275 -57.3333333333 -291.5 -64 -306.5 c 0
 -70.6666666667 -321.5 -79.6666666667 -334.666666667 -91 -346 c 0
 -102.333333333 -357.333333333 -115.666666667 -366.166666667 -131 -372.5 c 0
 -146.333333333 -378.833333333 -162.666666667 -382 -180 -382 c 256
 -197.333333333 -382 -213.666666667 -378.833333333 -229 -372.5 c 0
 -244.333333333 -366.166666667 -257.5 -357.333333333 -268.5 -346 c 0
 -279.5 -334.666666667 -288.166666667 -321.5 -294.5 -306.5 c 0
 -300.833333333 -291.5 -304 -275 -304 -257 c 0xe0
54 -257 m 0xc8
 54 -239.666666667 57.1666666667 -223.333333333 63.5 -208 c 0
 69.8333333333 -192.666666667 78.5 -179.333333333 89.5 -168 c 0
 100.5 -156.666666667 113.666666667 -147.666666667 129 -141 c 0
 144.333333333 -134.333333333 160.666666667 -131 178 -131 c 256
 195.333333333 -131 211.666666667 -134.333333333 227 -141 c 0
 242.333333333 -147.666666667 255.666666667 -156.666666667 267 -168 c 0
 278.333333333 -179.333333333 287.333333333 -192.666666667 294 -208 c 0
 300.666666667 -223.333333333 304 -239.666666667 304 -257 c 0
 304 -275 300.666666667 -291.5 294 -306.5 c 0
 287.333333333 -321.5 278.333333333 -334.666666667 267 -346 c 0
 255.666666667 -357.333333333 242.333333333 -366.166666667 227 -372.5 c 0
 211.666666667 -378.833333333 195.333333333 -382 178 -382 c 256
 160.666666667 -382 144.333333333 -378.833333333 129 -372.5 c 0
 113.666666667 -366.166666667 100.5 -357.333333333 89.5 -346 c 0
 78.5 -334.666666667 69.8333333333 -321.5 63.5 -306.5 c 0
 57.1666666667 -291.5 54 -275 54 -257 c 0xc8
EndSplineSet
Ligature2: "zlmBahebu subtable" bahebu bahebu bahebu
LCarets2: 2 0 0
EndChar

StartChar: smajibu.init
Encoding: 60876 -1 98
Width: 844
VWidth: 2000
GlyphClass: 2
Flags: W
HStem: 453 151<141 864>
LayerCount: 2
Fore
SplineSet
141 604 m 1
 864 604 l 1
 864 453 l 1
 141 453 l 1
 141 604 l 1
EndSplineSet
EndChar

StartChar: smajibu.medi
Encoding: 60877 -1 99
Width: 844
VWidth: 2000
GlyphClass: 2
Flags: W
HStem: 453 151<-20 864>
LayerCount: 2
Fore
SplineSet
-20 604 m 1
 864 604 l 1
 864 453 l 1
 -20 453 l 1
 -20 604 l 1
EndSplineSet
EndChar

StartChar: smajibu.fina
Encoding: 60878 -1 100
Width: 844
VWidth: 2000
GlyphClass: 2
Flags: W
HStem: 453 151<-20 694>
LayerCount: 2
Fore
SplineSet
-20 604 m 1
 694 604 l 1
 694 453 l 1
 -20 453 l 1
 -20 604 l 1
EndSplineSet
EndChar

StartChar: denpabu.cas
Encoding: 60879 -1 111
Width: 470
VWidth: 2000
Flags: W
HStem: 620 175<54.5579 424.135> 993 20G<616 654>
VStem: 36.3945 651.605
AnchorPoint: "Top" 141 1331 basechar 0
AnchorPoint: "Bottom" 225 0 basechar 0
LayerCount: 2
Fore
SplineSet
620 839 m 1
 594.666666667 783 539.034015135 729.407351969 452.9375 678.5 c 0
 386.979166667 639.5 304.561523437 620 205.684570312 620 c 0
 173.228190104 620 142.525049496 622.251259114 113.615234375 627 c 0
 85.205078125 631.666666667 59.46484375 638.666666667 36.39453125 648 c 1
 54.21484375 781 l 1
 61.4049479167 798.333333333 76.75 807 100.25 807 c 0
 114.083333333 807 134.382222326 805.026447161 161.134765625 801 c 0
 187.711588542 797 217.411783854 795 250.235351562 795 c 0
 298.745117187 795 341.578524855 799.771997476 378.6875 809.5 c 0
 415.5625 819.166666667 448.796140366 833.056905942 478.182617188 851.5 c 0
 507.394205729 869.833333333 533.379876946 892.501377223 556.14453125 919.5 c 0
 590.71484375 960.5 612 991.666666667 620 1013 c 1
 688 973 l 1
 620 839 l 1
EndSplineSet
EndChar
